<?xml version="1.0" encoding="UTF-8" standalone="no"?>
<!-- Created with Inkscape (http://www.inkscape.org/) -->

<svg
   width="210mm"
   height="297mm"
   viewBox="0 0 210 297"
   version="1.1"
   id="svg1"
   inkscape:version="1.3 (0e150ed6c4, 2023-07-21)"
   sodipodi:docname="fig xy.svg"
   xmlns:inkscape="http://www.inkscape.org/namespaces/inkscape"
   xmlns:sodipodi="http://sodipodi.sourceforge.net/DTD/sodipodi-0.dtd"
   xmlns="http://www.w3.org/2000/svg"
   xmlns:svg="http://www.w3.org/2000/svg">
  <sodipodi:namedview
     id="namedview1"
     pagecolor="#ffffff"
     bordercolor="#000000"
     borderopacity="0.25"
     inkscape:showpageshadow="2"
     inkscape:pageopacity="0.0"
     inkscape:pagecheckerboard="0"
     inkscape:deskcolor="#d1d1d1"
     inkscape:document-units="mm"
     showgrid="true"
     inkscape:lockguides="false"
     showguides="true"
     inkscape:zoom="0.94615212"
     inkscape:cx="313.90301"
     inkscape:cy="270.04114"
     inkscape:window-width="1920"
     inkscape:window-height="986"
     inkscape:window-x="-11"
     inkscape:window-y="-11"
     inkscape:window-maximized="1"
     inkscape:current-layer="layer1">
    <inkscape:grid
       id="grid1"
       units="mm"
       originx="0"
       originy="0"
       spacingx="0.99999998"
       spacingy="1"
       empcolor="#0099e5"
       empopacity="0.30196078"
       color="#0099e5"
       opacity="0.14901961"
       empspacing="5"
       dotted="false"
       gridanglex="30"
       gridanglez="30"
       visible="true"
       enabled="false" />
  </sodipodi:namedview>
  <defs
     id="defs1">
    <pattern
       id="EMFhbasepattern"
       patternUnits="userSpaceOnUse"
       width="6"
       height="6"
       x="0"
       y="0" />
    <clipPath
       clipPathUnits="userSpaceOnUse"
       id="clipEmfPath1-1">
      <path
         d="M 0,0 H 15.110174 V 14.824478 H 0 Z"
         id="path2-8" />
    </clipPath>
    <clipPath
       clipPathUnits="userSpaceOnUse"
       id="clipEmfPath1-1-4">
      <path
         d="M 0,0 H 15.110174 V 14.824478 H 0 Z"
         id="path2-8-2" />
    </clipPath>
    <clipPath
       clipPathUnits="userSpaceOnUse"
       id="clipEmfPath1-2-9">
      <path
         d="M 0,0 H 17.859896 V 16.226793 H 0 Z"
         id="path1-6-5" />
    </clipPath>
    <marker
       style="overflow:visible"
       id="DartArrow-4"
       refX="3"
       refY="0"
       orient="auto-start-reverse"
       inkscape:stockid="Dart arrow"
       markerWidth="1"
       markerHeight="1"
       viewBox="0 0 1 1"
       inkscape:isstock="true"
       inkscape:collect="always"
       preserveAspectRatio="xMidYMid">
      <path
         style="fill:context-stroke;fill-rule:evenodd;stroke:none"
         d="M 0,0 5,-5 -12.5,0 5,5 Z"
         transform="scale(-0.5)"
         id="path6-1" />
    </marker>
    <marker
       style="overflow:visible"
       id="marker12-6-2"
       refX="0"
       refY="0"
       orient="auto-start-reverse"
       inkscape:stockid="Triangle arrow"
       markerWidth="1"
       markerHeight="1"
       viewBox="0 0 1 1"
       inkscape:isstock="true"
       inkscape:collect="always"
       preserveAspectRatio="xMidYMid">
      <path
         transform="scale(0.5)"
         style="fill:context-stroke;fill-rule:evenodd;stroke:context-stroke;stroke-width:1pt"
         d="M 5.77,0 -2.88,5 V -5 Z"
         id="path12-5-4" />
    </marker>
    <marker
       style="overflow:visible"
       id="marker12-6-7"
       refX="0"
       refY="0"
       orient="auto-start-reverse"
       inkscape:stockid="Triangle arrow"
       markerWidth="1"
       markerHeight="1"
       viewBox="0 0 1 1"
       inkscape:isstock="true"
       inkscape:collect="always"
       preserveAspectRatio="xMidYMid">
      <path
         transform="scale(0.5)"
         style="fill:context-stroke;fill-rule:evenodd;stroke:context-stroke;stroke-width:1pt"
         d="M 5.77,0 -2.88,5 V -5 Z"
         id="path12-5-7" />
    </marker>
    <clipPath
       clipPathUnits="userSpaceOnUse"
       id="clipEmfPath1-2-9-6">
      <path
         d="M 0,0 H 17.859896 V 16.226793 H 0 Z"
         id="path1-6-5-8" />
    </clipPath>
    <marker
       style="overflow:visible"
       id="DartArrow-4-4"
       refX="3"
       refY="0"
       orient="auto-start-reverse"
       inkscape:stockid="Dart arrow"
       markerWidth="1"
       markerHeight="1"
       viewBox="0 0 1 1"
       inkscape:isstock="true"
       inkscape:collect="always"
       preserveAspectRatio="xMidYMid">
      <path
         style="fill:context-stroke;fill-rule:evenodd;stroke:none"
         d="M 0,0 5,-5 -12.5,0 5,5 Z"
         transform="scale(-0.5)"
         id="path6-1-8" />
    </marker>
    <marker
       style="overflow:visible"
       id="marker35"
       refX="0"
       refY="0"
       orient="auto-start-reverse"
       inkscape:stockid="Dart arrow"
       markerWidth="1"
       markerHeight="1"
       viewBox="0 0 1 1"
       inkscape:isstock="true"
       inkscape:collect="always"
       preserveAspectRatio="xMidYMid">
      <path
         style="fill:context-stroke;fill-rule:evenodd;stroke:none"
         d="M 0,0 5,-5 -12.5,0 5,5 Z"
         transform="scale(-0.5)"
         id="path35" />
    </marker>
    <marker
       style="overflow:visible"
       id="marker12-6-3"
       refX="0"
       refY="0"
       orient="auto-start-reverse"
       inkscape:stockid="Triangle arrow"
       markerWidth="1"
       markerHeight="1"
       viewBox="0 0 1 1"
       inkscape:isstock="true"
       inkscape:collect="always"
       preserveAspectRatio="xMidYMid">
      <path
         transform="scale(0.5)"
         style="fill:context-stroke;fill-rule:evenodd;stroke:context-stroke;stroke-width:1pt"
         d="M 5.77,0 -2.88,5 V -5 Z"
         id="path12-5-45" />
    </marker>
  </defs>
  <g
     inkscape:label="Warstwa 1"
     inkscape:groupmode="layer"
     id="layer1">
    <g
       id="g1"
       transform="translate(-2.7964143,3.91498)"
       inkscape:export-filename="sec_8_1.png"
       inkscape:export-xdpi="65.233032"
       inkscape:export-ydpi="65.233032">
      <path
         style="fill:none;stroke:#000000;stroke-width:0.381;stroke-dasharray:1.524, 0.762;stroke-dashoffset:0"
         d="M 108.36456,78.546737 V 67.831807"
         id="path13" />
      <text
         xml:space="preserve"
         style="font-style:normal;font-weight:normal;font-size:6.01361px;line-height:1.25;font-family:sans-serif;letter-spacing:0px;word-spacing:0px;fill:#000000;fill-opacity:1;stroke:none;stroke-width:0.22551"
         x="66.869041"
         y="82.334557"
         id="text7603-9"><tspan
           sodipodi:role="line"
           id="tspan7601-6"
           x="66.869041"
           y="82.334557"
           style="stroke-width:0.22551">x</tspan></text>
      <path
         style="fill:none;stroke:#000000;stroke-width:0.424266;stroke-dasharray:none;marker-start:url(#DartArrow-4);marker-end:url(#DartArrow-4)"
         d="M 32.818419,76.813637 H 107.24848"
         id="path7" />
      <g
         inkscape:label=""
         transform="translate(32.944518,32.548358)"
         id="g21"
         style="fill:#ff0000;fill-opacity:1;stroke:none;stroke-opacity:1">
        <g
           fill="#000000"
           fill-opacity="1"
           id="g18"
           transform="matrix(0.352778,0,0,0.352778,-1.04484,-0.706481)"
           style="fill:#ff0000;fill-opacity:1;stroke:none;stroke-opacity:1">
          <g
             id="g17"
             transform="translate(1.993,16.112)"
             style="fill:#ff0000;fill-opacity:1;stroke:none;stroke-opacity:1">
            <path
               d="m 7.59375,-12.703125 c 0.1875,-0.765625 0.28125,-0.8125 1.078125,-0.8125 h 1.484375 c 1.78125,0 3.109375,0.546875 3.109375,2.15625 0,1.046875 -0.546875,4.09375 -4.6875,4.09375 h -2.34375 z m 2.875,5.6875 c 2.5625,-0.5625 4.5625,-2.21875 4.5625,-4 0,-1.609375 -1.625,-3.09375 -4.5,-3.09375 H 4.9375 c -0.40625,0 -0.59375,0 -0.59375,0.390625 0,0.203125 0.140625,0.203125 0.53125,0.203125 1.234375,0 1.234375,0.171875 1.234375,0.40625 0,0.03125 0,0.15625 -0.078125,0.46875 L 3.25,-1.53125 c -0.1875,0.71875 -0.234375,0.9375 -1.65625,0.9375 -0.484375,0 -0.625,0 -0.625,0.390625 C 0.96875,0 1.203125,0 1.265625,0 1.625,0 2.0625,-0.046875 2.453125,-0.046875 h 2.4375 c 0.375,0 0.8125,0.046875 1.1875,0.046875 0.15625,0 0.390625,0 0.390625,-0.390625 0,-0.203125 -0.1875,-0.203125 -0.5,-0.203125 -1.265625,0 -1.265625,-0.171875 -1.265625,-0.375 0,-0.015625 0,-0.171875 0.046875,-0.328125 l 1.390625,-5.5625 h 2.46875 c 1.96875,0 2.34375,1.234375 2.34375,1.921875 0,0.3125 -0.21875,1.109375 -0.359375,1.65625 -0.21875,0.953125 -0.28125,1.171875 -0.28125,1.5625 0,1.46875 1.1875,2.15625 2.578125,2.15625 1.671875,0 2.390625,-2.046875 2.390625,-2.34375 0,-0.140625 -0.09375,-0.203125 -0.21875,-0.203125 -0.171875,0 -0.203125,0.125 -0.25,0.296875 -0.5,1.46875 -1.34375,1.828125 -1.859375,1.828125 -0.515625,0 -0.84375,-0.21875 -0.84375,-1.15625 0,-0.484375 0.25,-2.375 0.265625,-2.46875 0.09375,-0.765625 0.09375,-0.859375 0.09375,-1.015625 0,-1.515625 -1.21875,-2.15625 -2,-2.390625 z m 0,0"
               id="path17"
               style="fill:#ff0000;fill-opacity:1;stroke:none;stroke-opacity:1" />
          </g>
        </g>
        <g
           fill="#000000"
           fill-opacity="1"
           id="g20"
           transform="matrix(0.352778,0,0,0.352778,-1.04484,-0.706481)"
           style="fill:#ff0000;fill-opacity:1;stroke:none;stroke-opacity:1">
          <g
             id="g19"
             transform="translate(17.392,19.211)"
             style="fill:#ff0000;fill-opacity:1;stroke:none;stroke-opacity:1">
            <path
               d="M 4.3125,-1.703125 C 4.25,-1.46875 4.25,-1.4375 4.046875,-1.15625 c -0.3125,0.390625 -0.953125,1.015625 -1.625,1.015625 -0.578125,0 -0.921875,-0.53125 -0.921875,-1.375 0,-0.796875 0.453125,-2.40625 0.71875,-3 0.5,-1 1.171875,-1.515625 1.71875,-1.515625 0.953125,0 1.140625,1.171875 1.140625,1.28125 0,0.015625 -0.046875,0.203125 -0.0625,0.234375 z M 5.234375,-5.375 C 5.078125,-5.75 4.6875,-6.328125 3.9375,-6.328125 c -1.609375,0 -3.359375,2.09375 -3.359375,4.21875 0,1.421875 0.828125,2.25 1.796875,2.25 0.796875,0 1.46875,-0.609375 1.875,-1.09375 0.140625,0.859375 0.8125,1.09375 1.25,1.09375 0.421875,0 0.765625,-0.25 1.03125,-0.765625 C 6.75,-1.125 6.953125,-2 6.953125,-2.046875 6.953125,-2.125 6.90625,-2.1875 6.8125,-2.1875 c -0.125,0 -0.140625,0.078125 -0.203125,0.296875 -0.21875,0.84375 -0.484375,1.75 -1.078125,1.75 -0.40625,0 -0.4375,-0.375 -0.4375,-0.65625 0,-0.34375 0.046875,-0.5 0.171875,-1.046875 0.09375,-0.359375 0.171875,-0.6875 0.28125,-1.09375 0.53125,-2.15625 0.65625,-2.671875 0.65625,-2.75 0,-0.203125 -0.15625,-0.359375 -0.359375,-0.359375 -0.46875,0 -0.578125,0.5 -0.609375,0.671875 z m 0,0"
               id="path18"
               style="fill:#ff0000;fill-opacity:1;stroke:none;stroke-opacity:1" />
          </g>
        </g>
      </g>
      <rect
         style="fill:#c5c5c5;fill-opacity:1;stroke:none;stroke-width:0.74969;stroke-dasharray:none;stroke-dashoffset:0;stroke-opacity:1"
         id="rect33"
         width="15.735963"
         height="46.738266"
         x="14.898972"
         y="33.872807" />
      <text
         xml:space="preserve"
         style="font-style:normal;font-weight:normal;font-size:6.01361px;line-height:1.25;font-family:sans-serif;letter-spacing:0px;word-spacing:0px;fill:#000000;fill-opacity:1;stroke:none;stroke-width:0.22551"
         x="25.516108"
         y="20.542044"
         id="text7603-9-3"><tspan
           sodipodi:role="line"
           id="tspan7601-6-0"
           x="25.516108"
           y="20.542044"
           style="stroke-width:0.22551">y</tspan></text>
      <text
         xml:space="preserve"
         style="font-style:normal;font-weight:normal;font-size:6.01361px;line-height:1.25;font-family:sans-serif;letter-spacing:0px;word-spacing:0px;fill:#000000;fill-opacity:1;stroke:none;stroke-width:0.22551"
         x="199.4718"
         y="62.023739"
         id="text7607-7"><tspan
           sodipodi:role="line"
           id="tspan7605-1"
           x="199.4718"
           y="62.023739"
           style="stroke-width:0.22551">x</tspan></text>
      <text
         xml:space="preserve"
         style="font-style:normal;font-weight:normal;font-size:6.01361px;line-height:1.25;font-family:sans-serif;letter-spacing:0px;word-spacing:0px;fill:#000000;fill-opacity:1;stroke:none;stroke-width:0.22551"
         x="179.21558"
         y="62.229038"
         id="text7607-7-4"><tspan
           sodipodi:role="line"
           id="tspan7605-1-3"
           x="179.21558"
           y="62.229038"
           style="font-style:italic;stroke-width:0.22551">L</tspan></text>
      <path
         style="fill:none;stroke:#000000;stroke-width:0.907722;stroke-dasharray:none;stroke-opacity:1"
         d="M 31.085562,33.875758 30.959161,80.602067"
         id="path3-7" />
      <path
         style="fill:none;stroke:#000000;stroke-width:0.822489;stroke-dasharray:none;stroke-opacity:1;marker-start:url(#marker12-6-7)"
         d="m 177.85811,41.368008 0.16854,-19.04445"
         id="path10-1-7" />
      <g
         clip-path="url(#clipEmfPath1-2-9-6)"
         id="g2-1-6-9"
         transform="matrix(0.51618703,0,0,0.51618703,177.69753,26.196248)">
        <text
           xml:space="preserve"
           style="font-style:italic;font-variant:normal;font-weight:400;font-size:14.6875px;line-height:125%;font-family:'Times New Roman';text-align:start;letter-spacing:0px;word-spacing:0px;text-anchor:start;fill:#000000;fill-opacity:1;stroke:none"
           transform="translate(4.586588,12.856346)"
           x="0"
           y="0"
           id="text2-6-2-6"><tspan
             sodipodi:role="line"
             x="0"
             y="0"
             id="tspan2-8-6-8"><tspan
               dx="0"
               dy="0"
               style="font-style:italic;font-variant:normal;font-weight:400;font-size:14.6875px;font-family:'Times New Roman';fill:#000000"
               id="tspan1-8-4-8">P</tspan></tspan></text>
      </g>
      <path
         id="path33"
         style="fill:none;fill-opacity:1;stroke:#000000;stroke-width:0.426;stroke-dasharray:none;stroke-dashoffset:0;stroke-opacity:1;marker-end:url(#DartArrow-4-4)"
         d="m 178.01704,55.509767 h 24.54331" />
      <path
         style="fill:#ff0000;fill-opacity:1;stroke:#000000;stroke-width:0.440233;stroke-dasharray:none;stroke-dashoffset:0;stroke-opacity:1;marker-end:url(#marker35)"
         d="M 31.137446,35.063738 V 18.143198"
         id="path34" />
      <path
         id="path4"
         style="fill:none;fill-opacity:1;stroke:#000000;stroke-width:0.1;stroke-dasharray:none;stroke-opacity:1"
         d="m 30.50716,68.117987 h 8.3e-4" />
      <rect
         style="fill:none;fill-opacity:1;stroke:#000000;stroke-width:0.877366;stroke-dasharray:none;stroke-dashoffset:0;stroke-opacity:1"
         id="rect1-9-0"
         width="146.93303"
         height="23.288454"
         x="31.096909"
         y="44.547688" />
      <path
         style="fill:none;stroke:#ff0000;stroke-width:0.822489;stroke-dasharray:none;stroke-opacity:1;marker-start:url(#marker12-6-2)"
         d="m 31.207552,25.067468 -0.16853,19.04445"
         id="path10-1-9" />
      <g
         inkscape:label=""
         transform="matrix(0.94626128,0,0,0.9462612,9.2582237,52.950578)"
         id="g84">
        <g
           fill="#000000"
           fill-opacity="1"
           id="g3"
           transform="matrix(0.352778,0,0,0.352778,-1.06138,-0.706481)">
          <g
             id="use2"
             transform="translate(1.993,16.112)">
            <path
               d="m 18.75,-12.59375 c 0.1875,-0.703125 0.234375,-0.921875 1.703125,-0.921875 0.390625,0 0.578125,0 0.578125,-0.390625 0,-0.203125 -0.140625,-0.203125 -0.546875,-0.203125 h -2.46875 C 17.5,-14.109375 17.46875,-14.09375 17.25,-13.75 L 9.703125,-1.84375 8.15625,-13.65625 c -0.0625,-0.453125 -0.078125,-0.453125 -0.609375,-0.453125 h -2.5625 c -0.40625,0 -0.578125,0 -0.578125,0.390625 0,0.203125 0.171875,0.203125 0.484375,0.203125 1.265625,0 1.265625,0.171875 1.265625,0.40625 0,0.03125 0,0.15625 -0.078125,0.46875 l -2.65625,10.53125 c -0.234375,1 -0.71875,1.453125 -2.09375,1.515625 -0.0625,0 -0.3125,0.015625 -0.3125,0.359375 C 1.015625,0 1.203125,0 1.28125,0 1.6875,0 2.75,-0.046875 3.15625,-0.046875 h 1 C 4.4375,-0.046875 4.796875,0 5.078125,0 c 0.140625,0 0.375,0 0.375,-0.390625 0,-0.1875 -0.203125,-0.203125 -0.28125,-0.203125 -0.6875,-0.03125 -1.34375,-0.15625 -1.34375,-0.890625 0,-0.203125 0,-0.234375 0.078125,-0.515625 L 6.75,-13.390625 H 6.78125 L 8.484375,-0.5625 C 8.546875,-0.0625 8.578125,0 8.765625,0 8.984375,0 9.09375,-0.171875 9.1875,-0.34375 L 17.5,-13.484375 h 0.01563 l -3,11.953125 c -0.1875,0.71875 -0.21875,0.9375 -1.671875,0.9375 -0.390625,0 -0.59375,0 -0.59375,0.359375 C 12.25,0 12.4375,0 12.5625,0 c 0.34375,0 0.765625,-0.046875 1.109375,-0.046875 h 2.4375 C 16.46875,-0.046875 16.890625,0 17.25,0 c 0.15625,0 0.390625,0 0.390625,-0.390625 0,-0.203125 -0.1875,-0.203125 -0.5,-0.203125 -1.25,0 -1.25,-0.171875 -1.25,-0.375 0,-0.015625 0,-0.171875 0.03125,-0.328125 z m 0,0"
               id="path4-9" />
          </g>
        </g>
        <g
           fill="#000000"
           fill-opacity="1"
           id="g4"
           transform="matrix(0.352778,0,0,0.352778,-1.06138,-0.706481)">
          <g
             id="use3"
             transform="translate(21.566,19.211)">
            <path
               d="M 2.4375,-1.59375 C 1.9375,-0.75 1.453125,-0.453125 0.765625,-0.421875 0.609375,-0.40625 0.484375,-0.40625 0.484375,-0.140625 0.484375,-0.0625 0.5625,0 0.65625,0 0.921875,0 1.5625,-0.03125 1.828125,-0.03125 2.234375,-0.03125 2.703125,0 3.09375,0 3.1875,0 3.359375,0 3.359375,-0.265625 c 0,-0.140625 -0.125,-0.15625 -0.203125,-0.15625 C 2.828125,-0.4375 2.546875,-0.5625 2.546875,-0.90625 c 0,-0.203125 0.09375,-0.359375 0.28125,-0.671875 l 1.09375,-1.8125 h 3.65625 c 0.015625,0.140625 0.015625,0.25 0.03125,0.375 0.03125,0.375 0.203125,1.875 0.203125,2.140625 0,0.4375 -0.734375,0.453125 -0.953125,0.453125 -0.15625,0 -0.3125,0 -0.3125,0.265625 C 6.546875,0 6.671875,0 6.75,0 7,0 7.28125,-0.03125 7.53125,-0.03125 h 0.8125 C 9.21875,-0.03125 9.859375,0 9.875,0 c 0.09375,0 0.25,0 0.25,-0.265625 0,-0.15625 -0.125,-0.15625 -0.34375,-0.15625 -0.78125,0 -0.796875,-0.125 -0.84375,-0.546875 l -0.875,-8.953125 c -0.03125,-0.296875 -0.09375,-0.3125 -0.25,-0.3125 -0.140625,0 -0.21875,0.01563 -0.359375,0.234375 z M 4.15625,-3.796875 7.046875,-8.625 7.53125,-3.796875 Z m 0,0"
               id="path5" />
          </g>
        </g>
      </g>
      <path
         id="path84"
         style="fill:none;fill-opacity:1;stroke:#000000;stroke-width:0.701333;stroke-dasharray:none;stroke-dashoffset:0;stroke-opacity:1;marker-start:url(#marker12-6-3)"
         d="m 26.445917,69.985547 a 19.88876,19.888758 0 0 1 -5.711244,-13.9485 19.88876,19.888758 0 0 1 5.711244,-13.948489" />
      <path
         style="fill:none;fill-opacity:1;stroke:#000000;stroke-width:0.368;stroke-dasharray:none;stroke-opacity:1"
         d="m 107.87326,42.632688 c -3.25481,10.54214 3.45981,10.36136 0.59322,13.050599 -1.95079,2.50725 -0.91801,4.93386 0.53323,7.34915 0.77838,5.05172 -2.39524,6.63048 -4.47803,9.16784"
         id="path2"
         sodipodi:nodetypes="cccc" />
    </g>
  </g>
</svg>
