<?xml version="1.0" encoding="UTF-8" standalone="no"?>
<!-- Created with Inkscape (http://www.inkscape.org/) -->

<svg
   width="210mm"
   height="297mm"
   viewBox="0 0 210 297"
   version="1.1"
   id="svg1"
   inkscape:version="1.3 (0e150ed6c4, 2023-07-21)"
   sodipodi:docname="section_8_fig.svg"
   xmlns:inkscape="http://www.inkscape.org/namespaces/inkscape"
   xmlns:sodipodi="http://sodipodi.sourceforge.net/DTD/sodipodi-0.dtd"
   xmlns="http://www.w3.org/2000/svg"
   xmlns:svg="http://www.w3.org/2000/svg">
  <sodipodi:namedview
     id="namedview1"
     pagecolor="#ffffff"
     bordercolor="#000000"
     borderopacity="0.25"
     inkscape:showpageshadow="2"
     inkscape:pageopacity="0.0"
     inkscape:pagecheckerboard="0"
     inkscape:deskcolor="#d1d1d1"
     inkscape:document-units="mm"
     showgrid="true"
     showguides="false"
     guidecolor="#e50000"
     guideopacity="0.6"
     guidehicolor="#0010ff"
     guidehiopacity="0.49803922"
     inkscape:zoom="0.94615212"
     inkscape:cx="498.8627"
     inkscape:cy="266.87041"
     inkscape:window-width="1920"
     inkscape:window-height="986"
     inkscape:window-x="-11"
     inkscape:window-y="-11"
     inkscape:window-maximized="1"
     inkscape:current-layer="layer1">
    <inkscape:grid
       id="grid1"
       units="mm"
       originx="0"
       originy="0"
       spacingx="0.99999998"
       spacingy="1"
       empcolor="#0099e5"
       empopacity="0.30196078"
       color="#000ee5"
       opacity="0.14901961"
       empspacing="5"
       dotted="false"
       gridanglex="30"
       gridanglez="30"
       visible="true"
       snapvisiblegridlinesonly="true"
       enabled="false" />
    <sodipodi:guide
       position="53.388814,115.2803"
       orientation="1,0"
       id="guide1"
       inkscape:locked="false" />
    <sodipodi:guide
       position="90.95872,81.862852"
       orientation="0,-1"
       id="guide2"
       inkscape:locked="false" />
    <sodipodi:guide
       position="143.16112,111.12783"
       orientation="1,0"
       id="guide4"
       inkscape:locked="false" />
    <sodipodi:guide
       position="61.891477,106.97537"
       orientation="0,-1"
       id="guide5"
       inkscape:locked="false" />
    <sodipodi:guide
       position="84.631157,19.180426"
       orientation="0,-1"
       id="guide15"
       inkscape:locked="false" />
    <sodipodi:guide
       position="72.007667,142.14856"
       orientation="1,0"
       id="guide17"
       inkscape:locked="false" />
    <sodipodi:guide
       position="73.108755,139.56188"
       orientation="0,-1"
       id="guide18"
       inkscape:locked="false" />
  </sodipodi:namedview>
  <defs
     id="defs1">
    <marker
       style="overflow:visible"
       id="marker13"
       refX="0"
       refY="0"
       orient="auto-start-reverse"
       inkscape:stockid="Dart arrow"
       markerWidth="1"
       markerHeight="1"
       viewBox="0 0 1 1"
       inkscape:isstock="true"
       inkscape:collect="always"
       preserveAspectRatio="xMidYMid">
      <path
         style="fill:context-stroke;fill-rule:evenodd;stroke:none"
         d="M 0,0 5,-5 -12.5,0 5,5 Z"
         transform="scale(-0.5)"
         id="path13" />
    </marker>
    <marker
       style="overflow:visible"
       id="DartArrow"
       refX="0"
       refY="0"
       orient="auto-start-reverse"
       inkscape:stockid="Dart arrow"
       markerWidth="1"
       markerHeight="1"
       viewBox="0 0 1 1"
       inkscape:isstock="true"
       inkscape:collect="always"
       preserveAspectRatio="xMidYMid">
      <path
         style="fill:context-stroke;fill-rule:evenodd;stroke:none"
         d="M 0,0 5,-5 -12.5,0 5,5 Z"
         transform="scale(-0.5)"
         id="path6" />
    </marker>
    <pattern
       id="EMFhbasepattern"
       patternUnits="userSpaceOnUse"
       width="6"
       height="6"
       x="0"
       y="0" />
    <marker
       style="overflow:visible"
       id="marker13-1"
       refX="0"
       refY="0"
       orient="auto-start-reverse"
       inkscape:stockid="Dart arrow"
       markerWidth="1"
       markerHeight="1"
       viewBox="0 0 1 1"
       inkscape:isstock="true"
       inkscape:collect="always"
       preserveAspectRatio="xMidYMid">
      <path
         style="fill:context-stroke;fill-rule:evenodd;stroke:none"
         d="M 0,0 5,-5 -12.5,0 5,5 Z"
         transform="scale(-0.5)"
         id="path13-4" />
    </marker>
    <marker
       style="overflow:visible"
       id="DartArrow-8"
       refX="0"
       refY="0"
       orient="auto-start-reverse"
       inkscape:stockid="Dart arrow"
       markerWidth="1"
       markerHeight="1"
       viewBox="0 0 1 1"
       inkscape:isstock="true"
       inkscape:collect="always"
       preserveAspectRatio="xMidYMid">
      <path
         style="fill:context-stroke;fill-rule:evenodd;stroke:none"
         d="M 0,0 5,-5 -12.5,0 5,5 Z"
         transform="scale(-0.5)"
         id="path6-9" />
    </marker>
  </defs>
  <g
     inkscape:label="Warstwa 1"
     inkscape:groupmode="layer"
     id="layer1">
    <text
       xml:space="preserve"
       style="font-size:5.64444px;line-height:95.3%;font-family:System-ui;-inkscape-font-specification:System-ui;fill:none;fill-opacity:1;stroke:#000000;stroke-width:0.880999;stroke-dasharray:none;stroke-opacity:1"
       x="140.34337"
       y="207.22769"
       id="text5"><tspan
         sodipodi:role="line"
         id="tspan5"
         style="stroke-width:0.881;stroke:#000000;stroke-opacity:1"
         x="140.34337"
         y="207.22769" /></text>
    <g
       id="g1"
       inkscape:export-filename="sec8_2.png"
       inkscape:export-xdpi="86.096466"
       inkscape:export-ydpi="86.096466">
      <path
         style="fill:none;stroke:#000000;stroke-width:0.448786;stroke-dasharray:none;marker-end:url(#marker13)"
         d="m 55.906355,14.658298 v 48.11177"
         id="path2" />
      <path
         style="fill:none;stroke:#000000;stroke-width:0.381;stroke-dasharray:none;marker-end:url(#DartArrow)"
         d="M 55.906355,46.065858 H 157.59005"
         id="path4" />
      <path
         style="fill:none;fill-opacity:1;stroke:#ff0000;stroke-width:0.881;stroke-dasharray:none;stroke-opacity:1"
         d="m 55.906355,20.924348 89.808585,25.10219"
         id="path5" />
      <text
         xml:space="preserve"
         style="font-style:normal;font-variant:normal;font-weight:normal;font-stretch:normal;font-size:5.64444px;line-height:95.3%;font-family:System-ui;-inkscape-font-specification:System-ui;fill:#000000;fill-opacity:1;stroke:none;stroke-width:0.3;stroke-dasharray:none;stroke-opacity:1"
         x="143.96394"
         y="51.703617"
         id="text6"><tspan
           sodipodi:role="line"
           id="tspan6"
           style="font-style:italic;font-variant:normal;font-weight:normal;font-stretch:normal;font-family:Verdana;-inkscape-font-specification:'Verdana Italic';fill:#000000;fill-opacity:1;stroke:none;stroke-width:0.3;stroke-dasharray:none"
           x="143.96394"
           y="51.703617">L</tspan></text>
      <text
         xml:space="preserve"
         style="font-style:italic;font-variant:normal;font-weight:normal;font-stretch:normal;font-size:5.64444px;line-height:95.3%;font-family:Verdana;-inkscape-font-specification:'Verdana Italic';fill:#000000;fill-opacity:1;stroke:none;stroke-width:0.3;stroke-dasharray:none;stroke-opacity:1"
         x="44.980656"
         y="22.860296"
         id="text7"><tspan
           sodipodi:role="line"
           id="tspan7"
           style="stroke-width:0.3"
           x="44.980656"
           y="22.860296">-PL</tspan></text>
      <text
         xml:space="preserve"
         style="font-style:italic;font-variant:normal;font-weight:normal;font-stretch:normal;font-size:5.64444px;line-height:95.3%;font-family:Verdana;-inkscape-font-specification:'Verdana Italic';fill:#000000;fill-opacity:1;stroke:none;stroke-width:0.3;stroke-dasharray:none;stroke-opacity:1"
         x="49.91214"
         y="110.62968"
         id="text7-3"><tspan
           sodipodi:role="line"
           id="tspan7-6"
           style="stroke-width:0.3"
           x="49.91214"
           y="110.62968">P</tspan></text>
      <g
         inkscape:label=""
         transform="translate(44.720864,58.736868)"
         id="g13"
         style="fill:#000000;fill-opacity:1;stroke:#000000;stroke-width:0.2;stroke-dasharray:none;stroke-opacity:1">
        <g
           fill="#000000"
           fill-opacity="1"
           id="g10"
           transform="matrix(0.352778,0,0,0.352778,-1.00074,-0.70216)"
           style="fill:#000000;fill-opacity:1;stroke:#000000;stroke-width:0.566929;stroke-dasharray:none;stroke-opacity:1">
          <g
             id="g9"
             transform="translate(1.993,13.756)"
             style="fill:#000000;fill-opacity:1;stroke:#000000;stroke-width:0.566929;stroke-dasharray:none;stroke-opacity:1">
            <path
               d="m 15.640625,-10.5 c 0.15625,-0.59375 0.1875,-0.765625 1.40625,-0.765625 0.328125,0 0.484375,0 0.484375,-0.328125 0,-0.171875 -0.125,-0.171875 -0.453125,-0.171875 h -2.0625 c -0.4375,0 -0.453125,0.01563 -0.640625,0.296875 L 8.09375,-1.53125 6.796875,-11.375 C 6.75,-11.765625 6.734375,-11.765625 6.28125,-11.765625 h -2.125 c -0.328125,0 -0.484375,0 -0.484375,0.328125 0,0.171875 0.15625,0.171875 0.40625,0.171875 1.046875,0 1.046875,0.140625 1.046875,0.328125 0,0.03125 0,0.140625 -0.0625,0.40625 L 2.859375,-1.75 C 2.65625,-0.9375 2.25,-0.546875 1.109375,-0.5 1.046875,-0.5 0.84375,-0.484375 0.84375,-0.1875 0.84375,0 1,0 1.0625,0 1.40625,0 2.296875,-0.03125 2.640625,-0.03125 H 3.46875 C 3.703125,-0.03125 4,0 4.234375,0 c 0.125,0 0.3125,0 0.3125,-0.328125 C 4.546875,-0.484375 4.375,-0.5 4.3125,-0.5 3.734375,-0.515625 3.1875,-0.625 3.1875,-1.234375 c 0,-0.171875 0,-0.1875 0.0625,-0.4375 l 2.375,-9.484375 h 0.015625 l 1.4375,10.6875 C 7.125,-0.046875 7.140625,0 7.296875,0 7.484375,0 7.578125,-0.140625 7.65625,-0.296875 L 14.578125,-11.25 h 0.03125 l -2.5,9.96875 c -0.15625,0.609375 -0.1875,0.78125 -1.40625,0.78125 -0.3125,0 -0.5,0 -0.5,0.3125 C 10.203125,0 10.359375,0 10.46875,0 c 0.296875,0 0.640625,-0.03125 0.9375,-0.03125 H 13.4375 C 13.71875,-0.03125 14.078125,0 14.375,0 14.515625,0 14.703125,0 14.703125,-0.328125 14.703125,-0.5 14.546875,-0.5 14.296875,-0.5 c -1.0625,0 -1.0625,-0.140625 -1.0625,-0.3125 0,-0.015625 0,-0.140625 0.04687,-0.265625 z m 0,0"
               id="path9"
               style="fill:#000000;fill-opacity:1;stroke:#000000;stroke-width:0.566929;stroke-dasharray:none;stroke-opacity:1" />
          </g>
        </g>
        <g
           fill="#000000"
           fill-opacity="1"
           id="g12"
           transform="matrix(0.352778,0,0,0.352778,-1.00074,-0.70216)"
           style="fill:#000000;fill-opacity:1;stroke:#000000;stroke-width:0.566929;stroke-dasharray:none;stroke-opacity:1">
          <g
             id="g11"
             transform="translate(18.299999,16.337999)"
             style="fill:#000000;fill-opacity:1;stroke:#000000;stroke-width:0.566929;stroke-dasharray:none;stroke-opacity:1">
            <path
               d="M 4.375,-7.34375 C 4.484375,-7.796875 4.53125,-7.8125 5,-7.8125 h 1.546875 c 1.359375,0 1.359375,1.140625 1.359375,1.25 0,0.96875 -0.96875,2.203125 -2.546875,2.203125 h -1.71875 z m 2.015625,3.078125 C 7.703125,-4.5 8.875,-5.421875 8.875,-6.515625 8.875,-7.453125 8.0625,-8.15625 6.703125,-8.15625 H 2.875 c -0.234375,0 -0.34375,0 -0.34375,0.21875 0,0.125 0.109375,0.125 0.296875,0.125 0.71875,0 0.71875,0.09375 0.71875,0.21875 0,0.03125 0,0.09375 -0.046875,0.28125 L 1.890625,-0.890625 C 1.78125,-0.46875 1.75,-0.34375 0.921875,-0.34375 c -0.234375,0 -0.34375,0 -0.34375,0.21875 0,0.125 0.0625,0.125 0.3125,0.125 h 4.09375 C 6.8125,0 8.21875,-1.390625 8.21875,-2.59375 c 0,-0.984375 -0.859375,-1.578125 -1.828125,-1.671875 z m -1.6875,3.921875 h -1.625 c -0.15625,0 -0.1875,0 -0.25,-0.015625 -0.140625,-0.015625 -0.15625,-0.03125 -0.15625,-0.125 0,-0.09375 0.03125,-0.15625 0.046875,-0.265625 L 3.5625,-4.125 h 2.25 c 1.40625,0 1.40625,1.3125 1.40625,1.40625 0,1.15625 -1.03125,2.375 -2.515625,2.375 z m 0,0"
               id="path10"
               style="fill:#000000;fill-opacity:1;stroke:#000000;stroke-width:0.566929;stroke-dasharray:none;stroke-opacity:1" />
          </g>
        </g>
      </g>
      <text
         xml:space="preserve"
         style="font-style:italic;font-variant:normal;font-weight:normal;font-stretch:normal;font-size:4.58611px;line-height:95.3%;font-family:Verdana;-inkscape-font-specification:'Verdana Italic';fill:#000000;fill-opacity:1;stroke:#000000;stroke-width:0.1;stroke-dasharray:none;stroke-opacity:1"
         x="154.96933"
         y="51.396519"
         id="text13"><tspan
           sodipodi:role="line"
           id="tspan13"
           style="font-size:4.58611px;stroke-width:0.1;stroke-dasharray:none"
           x="154.96933"
           y="51.396519">x</tspan></text>
      <path
         style="fill:none;stroke:#000000;stroke-width:0.448786;stroke-dasharray:none;marker-end:url(#marker13-1)"
         d="M 55.793708,72.907478 V 121.01925"
         id="path2-8" />
      <path
         style="fill:none;stroke:#000000;stroke-width:0.381;stroke-dasharray:none;marker-end:url(#DartArrow-8)"
         d="M 55.583977,85.229508 H 157.26768"
         id="path4-8" />
      <text
         xml:space="preserve"
         style="font-style:normal;font-variant:normal;font-weight:normal;font-stretch:normal;font-size:5.64444px;line-height:95.3%;font-family:System-ui;-inkscape-font-specification:System-ui;fill:#000000;fill-opacity:1;stroke:none;stroke-width:0.3;stroke-dasharray:none;stroke-opacity:1"
         x="144.01149"
         y="84.111732"
         id="text6-0"><tspan
           sodipodi:role="line"
           id="tspan6-4"
           style="font-style:italic;font-variant:normal;font-weight:normal;font-stretch:normal;font-family:Verdana;-inkscape-font-specification:'Verdana Italic';fill:#000000;fill-opacity:1;stroke:none;stroke-width:0.3;stroke-dasharray:none"
           x="144.01149"
           y="84.111732">L</tspan></text>
      <text
         xml:space="preserve"
         style="font-style:italic;font-variant:normal;font-weight:normal;font-stretch:normal;font-size:4.58611px;line-height:95.3%;font-family:Verdana;-inkscape-font-specification:'Verdana Italic';fill:#000000;fill-opacity:1;stroke:#000000;stroke-width:0.1;stroke-dasharray:none;stroke-opacity:1"
         x="155.44991"
         y="90.662987"
         id="text13-6"><tspan
           sodipodi:role="line"
           id="tspan13-1"
           style="font-size:4.58611px;stroke-width:0.1;stroke-dasharray:none"
           x="155.44991"
           y="90.662987">x</tspan></text>
      <g
         inkscape:label=""
         transform="translate(42.064134,115.50473)"
         id="g15"
         style="fill:#000000;fill-opacity:1;stroke:#000000;stroke-width:0.2;stroke-dasharray:none;stroke-opacity:1">
        <g
           fill="#000000"
           fill-opacity="1"
           id="g5"
           transform="matrix(0.352778,0,0,0.352778,-0.846402,-0.704982)"
           style="fill:#000000;fill-opacity:1;stroke:#000000;stroke-width:0.566929;stroke-dasharray:none;stroke-opacity:1">
          <g
             id="use4"
             transform="translate(1.993,14.889)"
             style="fill:#000000;fill-opacity:1;stroke:#000000;stroke-width:0.566929;stroke-dasharray:none;stroke-opacity:1">
            <path
               d="m 7.1875,-10.5 c 0.09375,-0.421875 0.125,-0.578125 0.390625,-0.640625 0.140625,-0.03125 0.703125,-0.03125 1.0625,-0.03125 1.71875,0 2.53125,0.0625 2.53125,1.40625 0,0.265625 -0.0625,0.921875 -0.171875,1.546875 L 10.984375,-8 c 0,0.0625 0.0625,0.171875 0.171875,0.171875 0.171875,0 0.171875,-0.09375 0.21875,-0.375 l 0.5,-3.046875 c 0.04687,-0.15625 0.04687,-0.1875 0.04687,-0.234375 0,-0.1875 -0.109375,-0.1875 -0.453125,-0.1875 h -9.42187 c -0.390625,0 -0.40625,0.01563 -0.515625,0.328125 L 0.484375,-8.25 C 0.46875,-8.21875 0.40625,-8.03125 0.40625,-8 c 0,0.078125 0.078125,0.171875 0.171875,0.171875 0.140625,0 0.171875,-0.078125 0.25,-0.296875 0.71875,-2.078125 1.078125,-3.046875 3.375,-3.046875 h 1.15625 c 0.40625,0 0.578125,0 0.578125,0.1875 0,0.04687 0,0.07813 -0.078125,0.390625 l -2.3125,9.25 C 3.375,-0.671875 3.34375,-0.5 1.515625,-0.5 1.078125,-0.5 0.96875,-0.5 0.96875,-0.171875 0.96875,0 1.15625,0 1.234375,0 1.671875,0 2.125,-0.03125 2.546875,-0.03125 h 2.6875 C 5.671875,-0.03125 6.125,0 6.5625,0 6.75,0 6.921875,0 6.921875,-0.328125 6.921875,-0.5 6.796875,-0.5 6.359375,-0.5 c -1.5625,0 -1.5625,-0.15625 -1.5625,-0.40625 0,-0.03125 0,-0.140625 0.078125,-0.421875 z m 0,0"
               id="path8"
               style="fill:#000000;fill-opacity:1;stroke:#000000;stroke-width:0.566929;stroke-dasharray:none;stroke-opacity:1" />
          </g>
        </g>
        <g
           fill="#000000"
           fill-opacity="1"
           id="g6"
           transform="matrix(0.352778,0,0,0.352778,-0.846402,-0.704982)"
           style="fill:#000000;fill-opacity:1;stroke:#000000;stroke-width:0.566929;stroke-dasharray:none;stroke-opacity:1">
          <g
             id="use5"
             transform="translate(14.214,14.889)"
             style="fill:#000000;fill-opacity:1;stroke:#000000;stroke-width:0.566929;stroke-dasharray:none;stroke-opacity:1">
            <path
               d="m 5.265625,4.203125 c 0,-0.015625 0,-0.046875 -0.046875,-0.109375 -0.796875,-0.8125 -2.90625,-3.015625 -2.90625,-8.375 0,-5.375 2.078125,-7.5625 2.921875,-8.421875 0,-0.01563 0.03125,-0.0625 0.03125,-0.109375 0,-0.04687 -0.046875,-0.07813 -0.125,-0.07813 -0.1875,0 -1.640625,1.265625 -2.484375,3.15625 -0.859375,1.921875 -1.109375,3.78125 -1.109375,5.421875 0,1.25 0.125,3.34375 1.15625,5.5625 0.828125,1.796875 2.234375,3.0625 2.4375,3.0625 0.09375,0 0.125,-0.046875 0.125,-0.109375 z m 0,0"
               id="path14"
               style="fill:#000000;fill-opacity:1;stroke:#000000;stroke-width:0.566929;stroke-dasharray:none;stroke-opacity:1" />
          </g>
        </g>
        <g
           fill="#000000"
           fill-opacity="1"
           id="g7"
           transform="matrix(0.352778,0,0,0.352778,-0.846402,-0.704982)"
           style="fill:#000000;fill-opacity:1;stroke:#000000;stroke-width:0.566929;stroke-dasharray:none;stroke-opacity:1">
          <g
             id="use6"
             transform="translate(20.309999,14.889)"
             style="fill:#000000;fill-opacity:1;stroke:#000000;stroke-width:0.566929;stroke-dasharray:none;stroke-opacity:1">
            <path
               d="m 8.15625,-7.03125 c -0.546875,0.109375 -0.75,0.515625 -0.75,0.84375 0,0.421875 0.328125,0.5625 0.5625,0.5625 0.515625,0 0.875,-0.453125 0.875,-0.921875 0,-0.71875 -0.8125,-1.046875 -1.546875,-1.046875 -1.046875,0 -1.625,1.03125 -1.78125,1.359375 -0.40625,-1.296875 -1.46875,-1.359375 -1.78125,-1.359375 -1.75,0 -2.6875,2.25 -2.6875,2.640625 0,0.0625 0.078125,0.15625 0.1875,0.15625 0.140625,0 0.171875,-0.109375 0.21875,-0.171875 C 2.03125,-6.890625 3.1875,-7.25 3.6875,-7.25 c 0.765625,0 0.921875,0.71875 0.921875,1.140625 0,0.375 -0.09375,0.765625 -0.296875,1.59375 L 3.71875,-2.15625 c -0.25,1.03125 -0.75,1.984375 -1.671875,1.984375 -0.078125,0 -0.515625,0 -0.875,-0.21875 0.625,-0.125 0.75,-0.640625 0.75,-0.84375 0,-0.34375 -0.25,-0.5625 -0.578125,-0.5625 -0.40625,0 -0.859375,0.375 -0.859375,0.921875 0,0.71875 0.8125,1.046875 1.546875,1.046875 0.828125,0 1.40625,-0.65625 1.78125,-1.359375 0.265625,1.015625 1.125,1.359375 1.765625,1.359375 1.75,0 2.6875,-2.25 2.6875,-2.640625 0,-0.078125 -0.0625,-0.15625 -0.171875,-0.15625 -0.15625,0 -0.171875,0.09375 -0.21875,0.234375 -0.46875,1.515625 -1.46875,2.21875 -2.25,2.21875 -0.59375,0 -0.921875,-0.453125 -0.921875,-1.15625 0,-0.375 0.0625,-0.65625 0.34375,-1.78125 l 0.59375,-2.34375 C 5.90625,-6.484375 6.484375,-7.25 7.28125,-7.25 c 0.03125,0 0.515625,0 0.875,0.21875 z m 0,0"
               id="path15"
               style="fill:#000000;fill-opacity:1;stroke:#000000;stroke-width:0.566929;stroke-dasharray:none;stroke-opacity:1" />
          </g>
        </g>
        <g
           fill="#000000"
           fill-opacity="1"
           id="g8"
           transform="matrix(0.352778,0,0,0.352778,-0.846402,-0.704982)"
           style="fill:#000000;fill-opacity:1;stroke:#000000;stroke-width:0.566929;stroke-dasharray:none;stroke-opacity:1">
          <g
             id="use7"
             transform="translate(29.889,14.889)"
             style="fill:#000000;fill-opacity:1;stroke:#000000;stroke-width:0.566929;stroke-dasharray:none;stroke-opacity:1">
            <path
               d="m 4.53125,-4.28125 c 0,-1.25 -0.125,-3.34375 -1.15625,-5.5625 -0.828125,-1.796875 -2.234375,-3.046875 -2.4375,-3.046875 -0.0625,0 -0.125,0.01563 -0.125,0.09375 0,0.03125 0.015625,0.0625 0.03125,0.09375 0.828125,0.859375 2.921875,3.046875 2.921875,8.390625 0,5.375 -2.078125,7.5625 -2.921875,8.421875 C 0.828125,4.15625 0.8125,4.171875 0.8125,4.203125 0.8125,4.28125 0.875,4.3125 0.9375,4.3125 1.125,4.3125 2.578125,3.03125 3.421875,1.140625 4.28125,-0.78125 4.53125,-2.640625 4.53125,-4.28125 Z m 0,0"
               id="path11"
               style="fill:#000000;fill-opacity:1;stroke:#000000;stroke-width:0.566929;stroke-dasharray:none;stroke-opacity:1" />
          </g>
        </g>
      </g>
      <path
         style="fill:none;fill-opacity:1;stroke:#ff0000;stroke-width:0.881;stroke-dasharray:none;stroke-opacity:1"
         d="m 145.73242,85.241878 v 23.489882 l -89.965886,-0.009"
         id="path16" />
      <circle
         style="fill:none;fill-opacity:1;stroke:#ff0000;stroke-width:0.880999;stroke-dasharray:none;stroke-opacity:1"
         id="path17"
         cx="75.381165"
         cy="35.803547"
         r="3.905293" />
      <path
         style="fill:none;fill-opacity:1;stroke:#ff0000;stroke-width:0.782101;stroke-dasharray:none;stroke-opacity:1"
         d="m 77.37161,35.781338 -4.124296,-0.0124"
         id="path18-9" />
      <circle
         style="fill:none;fill-opacity:1;stroke:#ff0000;stroke-width:0.880999;stroke-dasharray:none;stroke-opacity:1"
         id="path17-3"
         cx="99.532242"
         cy="97.327477"
         r="3.905293" />
      <path
         style="fill:none;fill-opacity:1;stroke:#ff0000;stroke-width:0.880999;stroke-dasharray:none;stroke-opacity:1"
         d="m 99.519885,94.633328 -0.01236,5.26473"
         id="path18-1" />
      <path
         style="fill:none;fill-opacity:1;stroke:#ff0000;stroke-width:0.880999;stroke-dasharray:none;stroke-opacity:1"
         d="m 102.18903,97.305238 -5.264726,-0.0124"
         id="path18-9-5" />
    </g>
  </g>
</svg>
