<?xml version="1.0" encoding="UTF-8" standalone="no"?>
<!-- Created with Inkscape (http://www.inkscape.org/) -->

<svg
   width="210mm"
   height="297mm"
   viewBox="0 0 210 297"
   version="1.1"
   id="svg1"
   inkscape:version="1.3 (0e150ed6c4, 2023-07-21)"
   sodipodi:docname="section_11_fig3.svg"
   xmlns:inkscape="http://www.inkscape.org/namespaces/inkscape"
   xmlns:sodipodi="http://sodipodi.sourceforge.net/DTD/sodipodi-0.dtd"
   xmlns="http://www.w3.org/2000/svg"
   xmlns:svg="http://www.w3.org/2000/svg">
  <sodipodi:namedview
     id="namedview1"
     pagecolor="#ffffff"
     bordercolor="#000000"
     borderopacity="0.25"
     inkscape:showpageshadow="2"
     inkscape:pageopacity="0.0"
     inkscape:pagecheckerboard="0"
     inkscape:deskcolor="#d1d1d1"
     inkscape:document-units="mm"
     inkscape:zoom="1"
     inkscape:cx="330"
     inkscape:cy="335.5"
     inkscape:window-width="1920"
     inkscape:window-height="986"
     inkscape:window-x="-11"
     inkscape:window-y="-11"
     inkscape:window-maximized="1"
     inkscape:current-layer="layer1"
     showguides="false">
    <sodipodi:guide
       position="178.04551,194.07348"
       orientation="0,-1"
       id="guide1"
       inkscape:locked="false" />
    <sodipodi:guide
       position="166.30817,179.99168"
       orientation="0,-1"
       id="guide2"
       inkscape:locked="false" />
    <sodipodi:guide
       position="171.23846,187.02503"
       orientation="0,-1"
       id="guide3"
       inkscape:locked="false" />
  </sodipodi:namedview>
  <defs
     id="defs1">
    <marker
       style="overflow:visible"
       id="Triangle"
       refX="0"
       refY="0"
       orient="auto-start-reverse"
       inkscape:stockid="Triangle arrow"
       markerWidth="1"
       markerHeight="1"
       viewBox="0 0 1 1"
       inkscape:isstock="true"
       inkscape:collect="always"
       preserveAspectRatio="xMidYMid">
      <path
         transform="scale(0.5)"
         style="fill:context-stroke;fill-rule:evenodd;stroke:context-stroke;stroke-width:1pt"
         d="M 5.77,0 -2.88,5 V -5 Z"
         id="path135" />
    </marker>
    <marker
       style="overflow:visible"
       id="marker4"
       refX="0"
       refY="0"
       orient="auto-start-reverse"
       inkscape:stockid="Dart arrow"
       markerWidth="1"
       markerHeight="1"
       viewBox="0 0 1 1"
       inkscape:isstock="true"
       inkscape:collect="always"
       preserveAspectRatio="xMidYMid">
      <path
         style="fill:context-stroke;fill-rule:evenodd;stroke:none"
         d="M 0,0 5,-5 -12.5,0 5,5 Z"
         transform="scale(-0.5)"
         id="path4" />
    </marker>
    <marker
       style="overflow:visible"
       id="DartArrow"
       refX="0"
       refY="0"
       orient="auto-start-reverse"
       inkscape:stockid="Dart arrow"
       markerWidth="1"
       markerHeight="1"
       viewBox="0 0 1 1"
       inkscape:isstock="true"
       inkscape:collect="always"
       preserveAspectRatio="xMidYMid">
      <path
         style="fill:context-stroke;fill-rule:evenodd;stroke:none"
         d="M 0,0 5,-5 -12.5,0 5,5 Z"
         transform="scale(-0.5)"
         id="path6" />
    </marker>
    <pattern
       id="EMFhbasepattern"
       patternUnits="userSpaceOnUse"
       width="6"
       height="6"
       x="0"
       y="0" />
    <marker
       style="overflow:visible"
       id="Triangle-0"
       refX="0"
       refY="0"
       orient="auto-start-reverse"
       inkscape:stockid="Triangle arrow"
       markerWidth="1"
       markerHeight="1"
       viewBox="0 0 1 1"
       inkscape:isstock="true"
       inkscape:collect="always"
       preserveAspectRatio="xMidYMid">
      <path
         transform="scale(0.5)"
         style="fill:context-stroke;fill-rule:evenodd;stroke:context-stroke;stroke-width:1pt"
         d="M 5.77,0 -2.88,5 V -5 Z"
         id="path135-6" />
    </marker>
  </defs>
  <g
     inkscape:label="Warstwa 1"
     inkscape:groupmode="layer"
     id="layer1">
    <g
       id="g13"
       transform="translate(-5.2384827,-25.631148)"
       inkscape:export-filename="sec11_3.png"
       inkscape:export-xdpi="63.313614"
       inkscape:export-ydpi="63.313614">
      <path
         style="fill:#c0c0c0;fill-opacity:1;stroke:#000000;stroke-width:0.3;stroke-miterlimit:12.9;stroke-dasharray:none;stroke-opacity:1;marker-end:url(#DartArrow);paint-order:markers fill stroke"
         d="M 30.364507,102.76291 V 81.809277"
         id="path1" />
      <path
         style="fill:#c0c0c0;fill-opacity:1;stroke:#000000;stroke-width:0.3;stroke-miterlimit:12.9;stroke-dasharray:none;stroke-opacity:1;marker-end:url(#marker4);paint-order:markers fill stroke"
         d="m 165.49198,109.97647 h 21.39067"
         id="path3" />
      <rect
         style="fill:#c0c0c0;fill-opacity:1;stroke:#555555;stroke-width:0.600001;stroke-miterlimit:12.9;stroke-opacity:1;paint-order:markers fill stroke"
         id="rect1"
         width="134.98244"
         height="14.096879"
         x="30.511053"
         y="102.92652" />
      <text
         xml:space="preserve"
         style="font-style:italic;font-size:5.29167px;line-height:95.3%;font-family:'Times New Roman';-inkscape-font-specification:'Times New Roman,  Italic';fill:#000000;fill-opacity:1;stroke:none;stroke-width:0.3;stroke-miterlimit:12.9;stroke-dasharray:none;stroke-opacity:1;paint-order:markers fill stroke"
         x="32.800903"
         y="82.332253"
         id="text4"><tspan
           sodipodi:role="line"
           id="tspan4"
           style="fill:#000000;fill-opacity:1;stroke:none;stroke-width:0.3;stroke-opacity:1"
           x="32.800903"
           y="82.332253">y</tspan></text>
      <text
         xml:space="preserve"
         style="font-style:italic;font-size:5.29167px;line-height:95.3%;font-family:'Times New Roman';-inkscape-font-specification:'Times New Roman,  Italic';fill:#000000;fill-opacity:1;stroke:none;stroke-width:0.3;stroke-miterlimit:12.9;stroke-dasharray:none;stroke-opacity:1;paint-order:markers fill stroke"
         x="186.82098"
         y="114.72654"
         id="text5"><tspan
           sodipodi:role="line"
           id="tspan5"
           style="stroke-width:0.3"
           x="186.82098"
           y="114.72654">x</tspan></text>
      <path
         style="fill:#000000;fill-opacity:1;stroke:#ff0000;stroke-width:0.600001;stroke-miterlimit:12.9;stroke-dasharray:none;stroke-opacity:1;marker-end:url(#Triangle);paint-order:markers fill stroke"
         d="M 30.511696,102.62528 V 88.137465"
         id="path5" />
      <path
         style="fill:#000000;fill-opacity:1;stroke:#ff0000;stroke-width:0.600001;stroke-miterlimit:12.9;stroke-dasharray:none;stroke-opacity:1;marker-end:url(#Triangle-0);paint-order:markers fill stroke"
         d="M 165.48348,86.004626 V 100.49244"
         id="path5-8" />
      <text
         xml:space="preserve"
         style="font-style:italic;font-size:5.29167px;line-height:95.3%;font-family:'Times New Roman';-inkscape-font-specification:'Times New Roman,  Italic';fill:none;fill-opacity:1;stroke:#ff0000;stroke-width:0.1;stroke-miterlimit:12.9;stroke-dasharray:none;stroke-opacity:1;paint-order:markers fill stroke"
         x="159.62999"
         y="91.951088"
         id="text6"><tspan
           sodipodi:role="line"
           id="tspan6"
           style="fill:#ff0000;fill-opacity:1;stroke:none;stroke-width:0.1;stroke-dasharray:none"
           x="159.62999"
           y="91.951088">P</tspan></text>
      <g
         inkscape:label=""
         transform="matrix(0.8393113,0,0,0.8393113,33.522527,89.740705)"
         id="g8"
         style="fill:#ff0000;fill-opacity:1;stroke-width:1.19145">
        <g
           fill="#000000"
           fill-opacity="1"
           id="g3"
           transform="matrix(0.352778,0,0,0.352778,-0.989718,-0.70216)"
           style="fill:#ff0000;fill-opacity:1;stroke-width:1.19145">
          <g
             id="use2"
             transform="translate(1.993,13.756)"
             style="fill:#ff0000;fill-opacity:1;stroke-width:1.19145">
            <path
               d="m 6.34375,-10.59375 c 0.140625,-0.640625 0.21875,-0.671875 0.890625,-0.671875 H 8.46875 c 1.484375,0 2.578125,0.453125 2.578125,1.796875 0,0.875 -0.4375,3.40625 -3.90625,3.40625 h -1.9375 z m 2.390625,4.734375 c 2.125,-0.453125 3.796875,-1.84375 3.796875,-3.3125 0,-1.34375 -1.359375,-2.59375 -3.75,-2.59375 H 4.109375 c -0.34375,0 -0.5,0 -0.5,0.328125 0,0.171875 0.125,0.171875 0.453125,0.171875 1.03125,0 1.03125,0.140625 1.03125,0.328125 0,0.03125 0,0.140625 -0.0625,0.40625 l -2.328125,9.25 C 2.546875,-0.671875 2.515625,-0.5 1.328125,-0.5 0.9375,-0.5 0.8125,-0.5 0.8125,-0.171875 0.8125,0 1,0 1.046875,0 c 0.3125,0 0.671875,-0.03125 1,-0.03125 h 2.03125 C 4.390625,-0.03125 4.75,0 5.0625,0 5.203125,0 5.390625,0 5.390625,-0.328125 5.390625,-0.5 5.234375,-0.5 4.96875,-0.5 c -1.046875,0 -1.046875,-0.140625 -1.046875,-0.3125 0,-0.015625 0,-0.140625 0.03125,-0.265625 L 5.109375,-5.71875 H 7.1875 c 1.625,0 1.9375,1.03125 1.9375,1.609375 0,0.25 -0.171875,0.921875 -0.296875,1.375 -0.1875,0.78125 -0.234375,0.984375 -0.234375,1.3125 0,1.21875 1,1.78125 2.15625,1.78125 1.390625,0 1.984375,-1.703125 1.984375,-1.9375 0,-0.125 -0.07813,-0.171875 -0.1875,-0.171875 -0.125,0 -0.171875,0.09375 -0.203125,0.234375 -0.40625,1.21875 -1.109375,1.53125 -1.546875,1.53125 -0.4375,0 -0.703125,-0.1875 -0.703125,-0.96875 0,-0.40625 0.203125,-1.96875 0.21875,-2.0625 0.09375,-0.640625 0.09375,-0.703125 0.09375,-0.84375 0,-1.25 -1.015625,-1.78125 -1.671875,-2 z m 0,0"
               id="path7"
               style="fill:#ff0000;fill-opacity:1;stroke-width:1.19145" />
          </g>
        </g>
        <g
           fill="#000000"
           fill-opacity="1"
           id="g4"
           transform="matrix(0.352778,0,0,0.352778,-0.989718,-0.70216)"
           style="fill:#ff0000;fill-opacity:1;stroke-width:1.19145">
          <g
             id="use3"
             transform="translate(14.823,17.629)"
             style="fill:#ff0000;fill-opacity:1;stroke-width:1.19145">
            <path
               d="M 2.4375,-1.59375 C 1.9375,-0.75 1.453125,-0.453125 0.765625,-0.421875 0.609375,-0.40625 0.484375,-0.40625 0.484375,-0.140625 0.484375,-0.0625 0.5625,0 0.65625,0 0.921875,0 1.5625,-0.03125 1.828125,-0.03125 2.234375,-0.03125 2.703125,0 3.09375,0 3.1875,0 3.359375,0 3.359375,-0.265625 c 0,-0.140625 -0.125,-0.15625 -0.203125,-0.15625 C 2.828125,-0.4375 2.546875,-0.5625 2.546875,-0.90625 c 0,-0.203125 0.09375,-0.359375 0.28125,-0.671875 l 1.09375,-1.8125 h 3.65625 c 0.015625,0.140625 0.015625,0.25 0.03125,0.375 0.03125,0.375 0.203125,1.875 0.203125,2.140625 0,0.4375 -0.734375,0.453125 -0.953125,0.453125 -0.15625,0 -0.3125,0 -0.3125,0.265625 C 6.546875,0 6.671875,0 6.75,0 7,0 7.28125,-0.03125 7.53125,-0.03125 h 0.8125 C 9.21875,-0.03125 9.859375,0 9.875,0 c 0.09375,0 0.25,0 0.25,-0.265625 0,-0.15625 -0.125,-0.15625 -0.34375,-0.15625 -0.78125,0 -0.796875,-0.125 -0.84375,-0.546875 l -0.875,-8.953125 c -0.03125,-0.296875 -0.09375,-0.3125 -0.25,-0.3125 -0.140625,0 -0.21875,0.01563 -0.359375,0.234375 z M 4.15625,-3.796875 7.046875,-8.625 7.53125,-3.796875 Z m 0,0"
               id="path8"
               style="fill:#ff0000;fill-opacity:1;stroke-width:1.19145" />
          </g>
        </g>
      </g>
      <rect
         style="fill:#ffffff;fill-opacity:1;stroke:#555555;stroke-width:0.6;stroke-miterlimit:12.9;stroke-dasharray:none;stroke-opacity:1;paint-order:markers fill stroke"
         id="rect8"
         width="6.1402974"
         height="14.078775"
         x="63.617477"
         y="102.92953" />
      <g
         inkscape:label=""
         transform="translate(61.714015,99.36774)"
         id="g9"
         style="stroke:#000000;stroke-width:0.1;stroke-dasharray:none;stroke-opacity:1">
        <g
           fill="#000000"
           fill-opacity="1"
           id="g2"
           transform="matrix(0.352778,0,0,0.352778,-0.846402,-0.64942)"
           style="stroke:#000000;stroke-width:0.283464;stroke-dasharray:none;stroke-opacity:1">
          <g
             id="use1"
             transform="translate(1.993,8.1689997)"
             style="stroke:#000000;stroke-width:0.283464;stroke-dasharray:none;stroke-opacity:1">
            <path
               d="m 6.796875,-5.859375 c -0.453125,0.09375 -0.625,0.4375 -0.625,0.703125 0,0.34375 0.265625,0.46875 0.46875,0.46875 0.4375,0 0.734375,-0.375 0.734375,-0.765625 0,-0.59375 -0.6875,-0.875 -1.296875,-0.875 -0.875,0 -1.359375,0.859375 -1.484375,1.140625 C 4.265625,-6.265625 3.375,-6.328125 3.109375,-6.328125 1.65625,-6.328125 0.875,-4.453125 0.875,-4.125 0.875,-4.078125 0.9375,-4 1.03125,-4 1.140625,-4 1.171875,-4.09375 1.203125,-4.140625 1.6875,-5.734375 2.65625,-6.03125 3.0625,-6.03125 c 0.65625,0 0.78125,0.59375 0.78125,0.9375 0,0.3125 -0.078125,0.640625 -0.265625,1.328125 l -0.484375,1.96875 c -0.203125,0.859375 -0.625,1.65625 -1.390625,1.65625 -0.0625,0 -0.421875,0 -0.734375,-0.1875 0.515625,-0.109375 0.640625,-0.53125 0.640625,-0.703125 0,-0.28125 -0.21875,-0.453125 -0.484375,-0.453125 -0.34375,0 -0.71875,0.296875 -0.71875,0.75 0,0.609375 0.671875,0.875 1.28125,0.875 0.6875,0 1.1875,-0.546875 1.484375,-1.125 0.234375,0.84375 0.9375,1.125 1.46875,1.125 1.46875,0 2.25,-1.875 2.25,-2.1875 0,-0.078125 -0.0625,-0.140625 -0.15625,-0.140625 -0.125,0 -0.140625,0.078125 -0.171875,0.1875 -0.390625,1.265625 -1.234375,1.859375 -1.875,1.859375 -0.5,0 -0.765625,-0.375 -0.765625,-0.96875 0,-0.3125 0.046875,-0.546875 0.28125,-1.484375 l 0.5,-1.953125 C 4.921875,-5.40625 5.40625,-6.03125 6.0625,-6.03125 c 0.03125,0 0.4375,0 0.734375,0.171875 z m 0,0"
               id="path2"
               style="stroke:#000000;stroke-width:0.283464;stroke-dasharray:none;stroke-opacity:1" />
          </g>
        </g>
      </g>
      <g
         inkscape:label=""
         transform="translate(69.25464,97.945604)"
         id="g12"
         style="fill:#000000;fill-opacity:1;stroke:#000000;stroke-width:0.1;stroke-dasharray:none;stroke-opacity:1">
        <g
           fill="#000000"
           fill-opacity="1"
           id="g11"
           transform="matrix(0.352778,0,0,0.352778,-0.846402,-0.550906)"
           style="fill:#000000;fill-opacity:1;stroke:#000000;stroke-width:0.283464;stroke-dasharray:none;stroke-opacity:1">
          <g
             id="g10"
             transform="translate(1.993,11.796)"
             style="fill:#000000;fill-opacity:1;stroke:#000000;stroke-width:0.283464;stroke-dasharray:none;stroke-opacity:1">
            <path
               d="m 6.796875,-5.859375 c -0.453125,0.09375 -0.625,0.4375 -0.625,0.703125 0,0.34375 0.265625,0.46875 0.46875,0.46875 0.4375,0 0.734375,-0.375 0.734375,-0.765625 0,-0.59375 -0.6875,-0.875 -1.296875,-0.875 -0.875,0 -1.359375,0.859375 -1.484375,1.140625 C 4.265625,-6.265625 3.375,-6.328125 3.109375,-6.328125 1.65625,-6.328125 0.875,-4.453125 0.875,-4.125 0.875,-4.078125 0.9375,-4 1.03125,-4 1.140625,-4 1.171875,-4.09375 1.203125,-4.140625 1.6875,-5.734375 2.65625,-6.03125 3.0625,-6.03125 c 0.65625,0 0.78125,0.59375 0.78125,0.9375 0,0.3125 -0.078125,0.640625 -0.265625,1.328125 l -0.484375,1.96875 c -0.203125,0.859375 -0.625,1.65625 -1.390625,1.65625 -0.0625,0 -0.421875,0 -0.734375,-0.1875 0.515625,-0.109375 0.640625,-0.53125 0.640625,-0.703125 0,-0.28125 -0.21875,-0.453125 -0.484375,-0.453125 -0.34375,0 -0.71875,0.296875 -0.71875,0.75 0,0.609375 0.671875,0.875 1.28125,0.875 0.6875,0 1.1875,-0.546875 1.484375,-1.125 0.234375,0.84375 0.9375,1.125 1.46875,1.125 1.46875,0 2.25,-1.875 2.25,-2.1875 0,-0.078125 -0.0625,-0.140625 -0.15625,-0.140625 -0.125,0 -0.140625,0.078125 -0.171875,0.1875 -0.390625,1.265625 -1.234375,1.859375 -1.875,1.859375 -0.5,0 -0.765625,-0.375 -0.765625,-0.96875 0,-0.3125 0.046875,-0.546875 0.28125,-1.484375 l 0.5,-1.953125 C 4.921875,-5.40625 5.40625,-6.03125 6.0625,-6.03125 c 0.03125,0 0.4375,0 0.734375,0.171875 z m 0,0"
               id="path9"
               style="fill:#000000;fill-opacity:1;stroke:#000000;stroke-width:0.283464;stroke-dasharray:none;stroke-opacity:1" />
          </g>
        </g>
        <g
           fill="#000000"
           fill-opacity="1"
           id="g5"
           transform="matrix(0.352778,0,0,0.352778,-0.846402,-0.550906)"
           style="fill:#000000;fill-opacity:1;stroke:#000000;stroke-width:0.283464;stroke-dasharray:none;stroke-opacity:1">
          <g
             id="use4"
             transform="translate(13.163,11.796)"
             style="fill:#000000;fill-opacity:1;stroke:#000000;stroke-width:0.283464;stroke-dasharray:none;stroke-opacity:1">
            <path
               d="M 5.71875,-3.3125 H 9.6875 c 0.203125,0 0.453125,0 0.453125,-0.265625 0,-0.265625 -0.25,-0.265625 -0.453125,-0.265625 H 5.71875 v -3.953125 c 0,-0.203125 0,-0.46875 -0.25,-0.46875 -0.28125,0 -0.28125,0.25 -0.28125,0.46875 V -3.84375 H 1.234375 c -0.203125,0 -0.453125,0 -0.453125,0.265625 0,0.265625 0.234375,0.265625 0.453125,0.265625 H 5.1875 v 3.953125 c 0,0.203125 0,0.46875 0.265625,0.46875 0.265625,0 0.265625,-0.25 0.265625,-0.46875 z m 0,0"
               id="path11"
               style="fill:#000000;fill-opacity:1;stroke:#000000;stroke-width:0.283464;stroke-dasharray:none;stroke-opacity:1" />
          </g>
        </g>
        <g
           fill="#000000"
           fill-opacity="1"
           id="g6"
           transform="matrix(0.352778,0,0,0.352778,-0.846402,-0.550906)"
           style="fill:#000000;fill-opacity:1;stroke:#000000;stroke-width:0.283464;stroke-dasharray:none;stroke-opacity:1">
          <g
             id="use5"
             transform="translate(27.273922,11.796)"
             style="fill:#000000;fill-opacity:1;stroke:#000000;stroke-width:0.283464;stroke-dasharray:none;stroke-opacity:1">
            <path
               d="m 6.1875,-9.984375 c -0.109375,-0.203125 -0.140625,-0.25 -0.328125,-0.25 -0.21875,0 -0.25,0.04687 -0.34375,0.25 L 0.71875,-0.28125 C 0.6875,-0.25 0.65625,-0.15625 0.65625,-0.09375 0.65625,-0.015625 0.671875,0 0.96875,0 h 9.765625 c 0.28125,0 0.296875,-0.015625 0.296875,-0.09375 0,-0.0625 -0.03125,-0.15625 -0.0625,-0.1875 z m -0.78125,1.0625 3.921875,7.9375 H 1.5 Z m 0,0"
               id="path12"
               style="fill:#000000;fill-opacity:1;stroke:#000000;stroke-width:0.283464;stroke-dasharray:none;stroke-opacity:1" />
          </g>
        </g>
        <g
           fill="#000000"
           fill-opacity="1"
           id="g7"
           transform="matrix(0.352778,0,0,0.352778,-0.846402,-0.550906)"
           style="fill:#000000;fill-opacity:1;stroke:#000000;stroke-width:0.283464;stroke-dasharray:none;stroke-opacity:1">
          <g
             id="use6"
             transform="translate(38.983002,11.796)"
             style="fill:#000000;fill-opacity:1;stroke:#000000;stroke-width:0.283464;stroke-dasharray:none;stroke-opacity:1">
            <path
               d="m 6.796875,-5.859375 c -0.453125,0.09375 -0.625,0.4375 -0.625,0.703125 0,0.34375 0.265625,0.46875 0.46875,0.46875 0.4375,0 0.734375,-0.375 0.734375,-0.765625 0,-0.59375 -0.6875,-0.875 -1.296875,-0.875 -0.875,0 -1.359375,0.859375 -1.484375,1.140625 C 4.265625,-6.265625 3.375,-6.328125 3.109375,-6.328125 1.65625,-6.328125 0.875,-4.453125 0.875,-4.125 0.875,-4.078125 0.9375,-4 1.03125,-4 1.140625,-4 1.171875,-4.09375 1.203125,-4.140625 1.6875,-5.734375 2.65625,-6.03125 3.0625,-6.03125 c 0.65625,0 0.78125,0.59375 0.78125,0.9375 0,0.3125 -0.078125,0.640625 -0.265625,1.328125 l -0.484375,1.96875 c -0.203125,0.859375 -0.625,1.65625 -1.390625,1.65625 -0.0625,0 -0.421875,0 -0.734375,-0.1875 0.515625,-0.109375 0.640625,-0.53125 0.640625,-0.703125 0,-0.28125 -0.21875,-0.453125 -0.484375,-0.453125 -0.34375,0 -0.71875,0.296875 -0.71875,0.75 0,0.609375 0.671875,0.875 1.28125,0.875 0.6875,0 1.1875,-0.546875 1.484375,-1.125 0.234375,0.84375 0.9375,1.125 1.46875,1.125 1.46875,0 2.25,-1.875 2.25,-2.1875 0,-0.078125 -0.0625,-0.140625 -0.15625,-0.140625 -0.125,0 -0.140625,0.078125 -0.171875,0.1875 -0.390625,1.265625 -1.234375,1.859375 -1.875,1.859375 -0.5,0 -0.765625,-0.375 -0.765625,-0.96875 0,-0.3125 0.046875,-0.546875 0.28125,-1.484375 l 0.5,-1.953125 C 4.921875,-5.40625 5.40625,-6.03125 6.0625,-6.03125 c 0.03125,0 0.4375,0 0.734375,0.171875 z m 0,0"
               id="path10"
               style="fill:#000000;fill-opacity:1;stroke:#000000;stroke-width:0.283464;stroke-dasharray:none;stroke-opacity:1" />
          </g>
        </g>
      </g>
    </g>
  </g>
</svg>
