<?xml version="1.0" encoding="UTF-8" standalone="no"?>
<!-- Created with Inkscape (http://www.inkscape.org/) -->

<svg
   width="210mm"
   height="297mm"
   viewBox="0 0 210 297"
   version="1.1"
   id="svg1"
   inkscape:version="1.3 (0e150ed6c4, 2023-07-21)"
   sodipodi:docname="section_11_fig1.svg"
   xmlns:inkscape="http://www.inkscape.org/namespaces/inkscape"
   xmlns:sodipodi="http://sodipodi.sourceforge.net/DTD/sodipodi-0.dtd"
   xmlns="http://www.w3.org/2000/svg"
   xmlns:svg="http://www.w3.org/2000/svg">
  <sodipodi:namedview
     id="namedview1"
     pagecolor="#ffffff"
     bordercolor="#000000"
     borderopacity="0.25"
     inkscape:showpageshadow="2"
     inkscape:pageopacity="0.0"
     inkscape:pagecheckerboard="0"
     inkscape:deskcolor="#d1d1d1"
     inkscape:document-units="mm"
     showguides="true"
     showgrid="true"
     inkscape:lockguides="false"
     inkscape:zoom="1.4142136"
     inkscape:cx="453.25543"
     inkscape:cy="358.14958"
     inkscape:window-width="1920"
     inkscape:window-height="986"
     inkscape:window-x="-11"
     inkscape:window-y="-11"
     inkscape:window-maximized="1"
     inkscape:current-layer="layer1">
    <inkscape:grid
       id="grid9"
       units="mm"
       originx="0"
       originy="0"
       spacingx="0.99999998"
       spacingy="1"
       empcolor="#0099e5"
       empopacity="0.30196078"
       color="#0099e5"
       opacity="0.14901961"
       empspacing="5"
       dotted="false"
       gridanglex="30"
       gridanglez="30"
       visible="true"
       enabled="false" />
  </sodipodi:namedview>
  <defs
     id="defs1">
    <marker
       style="overflow:visible"
       id="marker17"
       refX="0"
       refY="0"
       orient="auto-start-reverse"
       inkscape:stockid="Dart arrow"
       markerWidth="1"
       markerHeight="1"
       viewBox="0 0 1 1"
       inkscape:isstock="true"
       inkscape:collect="always"
       preserveAspectRatio="xMidYMid">
      <path
         style="fill:context-stroke;fill-rule:evenodd;stroke:none"
         d="M 0,0 5,-5 -12.5,0 5,5 Z"
         transform="scale(-0.5)"
         id="path17" />
    </marker>
    <marker
       style="overflow:visible"
       id="marker12"
       refX="0"
       refY="0"
       orient="auto-start-reverse"
       inkscape:stockid="Dart arrow"
       markerWidth="1"
       markerHeight="1"
       viewBox="0 0 1 1"
       inkscape:isstock="true"
       inkscape:collect="always"
       preserveAspectRatio="xMidYMid">
      <path
         style="fill:context-stroke;fill-rule:evenodd;stroke:none"
         d="M 0,0 5,-5 -12.5,0 5,5 Z"
         transform="scale(-0.5)"
         id="path12" />
    </marker>
    <marker
       style="overflow:visible"
       id="DartArrow"
       refX="0"
       refY="0"
       orient="auto-start-reverse"
       inkscape:stockid="Dart arrow"
       markerWidth="1"
       markerHeight="1"
       viewBox="0 0 1 1"
       inkscape:isstock="true"
       inkscape:collect="always"
       preserveAspectRatio="xMidYMid">
      <path
         style="fill:context-stroke;fill-rule:evenodd;stroke:none"
         d="M 0,0 5,-5 -12.5,0 5,5 Z"
         transform="scale(-0.5)"
         id="path6" />
    </marker>
    <linearGradient
       id="swatch12"
       inkscape:swatch="solid">
      <stop
         style="stop-color:#000000;stop-opacity:1;"
         offset="0"
         id="stop12" />
    </linearGradient>
    <marker
       style="overflow:visible"
       id="Triangle"
       refX="0"
       refY="0"
       orient="auto-start-reverse"
       inkscape:stockid="Triangle arrow"
       markerWidth="1"
       markerHeight="1"
       viewBox="0 0 1 1"
       inkscape:isstock="true"
       inkscape:collect="always"
       preserveAspectRatio="xMidYMid">
      <path
         transform="scale(0.5)"
         style="fill:context-stroke;fill-rule:evenodd;stroke:context-stroke;stroke-width:1pt"
         d="M 5.77,0 -2.88,5 V -5 Z"
         id="path135" />
    </marker>
    <pattern
       id="EMFhbasepattern"
       patternUnits="userSpaceOnUse"
       width="6"
       height="6"
       x="0"
       y="0" />
    <pattern
       id="EMFhbasepattern-9"
       patternUnits="userSpaceOnUse"
       width="6"
       height="6"
       x="0"
       y="0" />
    <marker
       style="overflow:visible"
       id="Triangle-2"
       refX="0"
       refY="0"
       orient="auto-start-reverse"
       inkscape:stockid="Triangle arrow"
       markerWidth="1"
       markerHeight="1"
       viewBox="0 0 1 1"
       inkscape:isstock="true"
       inkscape:collect="always"
       preserveAspectRatio="xMidYMid">
      <path
         transform="scale(0.5)"
         style="fill:context-stroke;fill-rule:evenodd;stroke:context-stroke;stroke-width:1pt"
         d="M 5.77,0 -2.88,5 V -5 Z"
         id="path135-2" />
    </marker>
    <marker
       style="overflow:visible"
       id="Triangle-3"
       refX="0"
       refY="0"
       orient="auto-start-reverse"
       inkscape:stockid="Triangle arrow"
       markerWidth="1"
       markerHeight="1"
       viewBox="0 0 1 1"
       inkscape:isstock="true"
       inkscape:collect="always"
       preserveAspectRatio="xMidYMid">
      <path
         transform="scale(0.5)"
         style="fill:context-stroke;fill-rule:evenodd;stroke:context-stroke;stroke-width:1pt"
         d="M 5.77,0 -2.88,5 V -5 Z"
         id="path135-3" />
    </marker>
    <marker
       style="overflow:visible"
       id="Triangle-7"
       refX="0"
       refY="0"
       orient="auto-start-reverse"
       inkscape:stockid="Triangle arrow"
       markerWidth="1"
       markerHeight="1"
       viewBox="0 0 1 1"
       inkscape:isstock="true"
       inkscape:collect="always"
       preserveAspectRatio="xMidYMid">
      <path
         transform="scale(0.5)"
         style="fill:context-stroke;fill-rule:evenodd;stroke:context-stroke;stroke-width:1pt"
         d="M 5.77,0 -2.88,5 V -5 Z"
         id="path135-9" />
    </marker>
    <marker
       style="overflow:visible"
       id="Triangle-8"
       refX="0"
       refY="0"
       orient="auto-start-reverse"
       inkscape:stockid="Triangle arrow"
       markerWidth="1"
       markerHeight="1"
       viewBox="0 0 1 1"
       inkscape:isstock="true"
       inkscape:collect="always"
       preserveAspectRatio="xMidYMid">
      <path
         transform="scale(0.5)"
         style="fill:context-stroke;fill-rule:evenodd;stroke:context-stroke;stroke-width:1pt"
         d="M 5.77,0 -2.88,5 V -5 Z"
         id="path135-0" />
    </marker>
    <marker
       style="overflow:visible"
       id="Triangle-5"
       refX="0"
       refY="0"
       orient="auto-start-reverse"
       inkscape:stockid="Triangle arrow"
       markerWidth="1"
       markerHeight="1"
       viewBox="0 0 1 1"
       inkscape:isstock="true"
       inkscape:collect="always"
       preserveAspectRatio="xMidYMid">
      <path
         transform="scale(0.5)"
         style="fill:context-stroke;fill-rule:evenodd;stroke:context-stroke;stroke-width:1pt"
         d="M 5.77,0 -2.88,5 V -5 Z"
         id="path135-23" />
    </marker>
    <marker
       style="overflow:visible"
       id="Triangle-75"
       refX="0"
       refY="0"
       orient="auto-start-reverse"
       inkscape:stockid="Triangle arrow"
       markerWidth="1"
       markerHeight="1"
       viewBox="0 0 1 1"
       inkscape:isstock="true"
       inkscape:collect="always"
       preserveAspectRatio="xMidYMid">
      <path
         transform="scale(0.5)"
         style="fill:context-stroke;fill-rule:evenodd;stroke:context-stroke;stroke-width:1pt"
         d="M 5.77,0 -2.88,5 V -5 Z"
         id="path135-1" />
    </marker>
    <marker
       style="overflow:visible"
       id="Triangle-6"
       refX="0"
       refY="0"
       orient="auto-start-reverse"
       inkscape:stockid="Triangle arrow"
       markerWidth="1"
       markerHeight="1"
       viewBox="0 0 1 1"
       inkscape:isstock="true"
       inkscape:collect="always"
       preserveAspectRatio="xMidYMid">
      <path
         transform="scale(0.5)"
         style="fill:context-stroke;fill-rule:evenodd;stroke:context-stroke;stroke-width:1pt"
         d="M 5.77,0 -2.88,5 V -5 Z"
         id="path135-96" />
    </marker>
    <marker
       style="overflow:visible"
       id="Triangle-1"
       refX="0"
       refY="0"
       orient="auto-start-reverse"
       inkscape:stockid="Triangle arrow"
       markerWidth="1"
       markerHeight="1"
       viewBox="0 0 1 1"
       inkscape:isstock="true"
       inkscape:collect="always"
       preserveAspectRatio="xMidYMid">
      <path
         transform="scale(0.5)"
         style="fill:context-stroke;fill-rule:evenodd;stroke:context-stroke;stroke-width:1pt"
         d="M 5.77,0 -2.88,5 V -5 Z"
         id="path135-7" />
    </marker>
    <marker
       style="overflow:visible"
       id="Triangle-1-2"
       refX="0"
       refY="0"
       orient="auto-start-reverse"
       inkscape:stockid="Triangle arrow"
       markerWidth="1"
       markerHeight="1"
       viewBox="0 0 1 1"
       inkscape:isstock="true"
       inkscape:collect="always"
       preserveAspectRatio="xMidYMid">
      <path
         transform="scale(0.5)"
         style="fill:context-stroke;fill-rule:evenodd;stroke:context-stroke;stroke-width:1pt"
         d="M 5.77,0 -2.88,5 V -5 Z"
         id="path135-7-1" />
    </marker>
    <marker
       style="overflow:visible"
       id="Triangle-0"
       refX="0"
       refY="0"
       orient="auto-start-reverse"
       inkscape:stockid="Triangle arrow"
       markerWidth="1"
       markerHeight="1"
       viewBox="0 0 1 1"
       inkscape:isstock="true"
       inkscape:collect="always"
       preserveAspectRatio="xMidYMid">
      <path
         transform="scale(0.5)"
         style="fill:context-stroke;fill-rule:evenodd;stroke:context-stroke;stroke-width:1pt"
         d="M 5.77,0 -2.88,5 V -5 Z"
         id="path135-94" />
    </marker>
  </defs>
  <g
     inkscape:label="Warstwa 1"
     inkscape:groupmode="layer"
     id="layer1">
    <text
       xml:space="preserve"
       style="font-size:5.64444px;line-height:95.3%;font-family:Verdana;-inkscape-font-specification:Verdana;fill:none;stroke:#ff0000;stroke-width:0.1;stroke-dasharray:none;stroke-opacity:1;paint-order:stroke markers fill"
       x="132.29167"
       y="44.946095"
       id="text4"><tspan
         sodipodi:role="line"
         id="tspan4"
         style="stroke-width:0.1"
         x="132.29167"
         y="44.946095" /></text>
    <g
       id="g1"
       inkscape:export-filename="sec10_1.png"
       inkscape:export-xdpi="96"
       inkscape:export-ydpi="96">
      <path
         id="rect15"
         style="opacity:1;fill:#cacaca;fill-opacity:1;stroke:#9f9f9f;stroke-width:0.4;stroke-linecap:butt;stroke-linejoin:miter;stroke-miterlimit:12.9;stroke-dasharray:none;stroke-dashoffset:0;stroke-opacity:1;paint-order:markers fill stroke"
         d="m 73.346638,117.8046 -1.352463,0.004 3.098383,3.27711 3.088941,-3.2931 v 0 l -1.290027,0.004 V 106.89645 H 73.29733 v 10.90602 l -2.89e-4,0.15193"
         sodipodi:nodetypes="cccccccccc" />
      <path
         id="rect15-6"
         style="fill:#cacaca;fill-opacity:1;stroke:#9f9f9f;stroke-width:0.4;stroke-linecap:butt;stroke-linejoin:miter;stroke-miterlimit:12.9;stroke-dasharray:none;stroke-dashoffset:0;stroke-opacity:1;paint-order:markers fill stroke"
         d="m 135.19359,117.88576 -1.35246,0.004 3.09838,3.27711 3.08894,-3.2931 v 0 l -1.29003,0.004 v -10.90016 h -3.59414 v 10.90602 l -2.9e-4,0.15193"
         sodipodi:nodetypes="cccccccccc" />
      <g
         id="g31"
         transform="translate(-27.012755,0.68966347)">
        <path
           id="path3-7"
           style="fill:none;stroke:#ff0000;stroke-width:0.600001;stroke-dasharray:none;stroke-opacity:1;marker-end:url(#Triangle-3);paint-order:stroke markers fill"
           d="m 167.62319,77.992411 a 11.854218,10.501357 0 0 1 5.53339,8.780058 11.854218,10.501357 0 0 1 -4.61678,8.421551" />
        <text
           xml:space="preserve"
           style="font-size:4.58611px;line-height:95.3%;font-family:Verdana;-inkscape-font-specification:Verdana;fill:none;stroke:#ff0000;stroke-width:0.1;stroke-dasharray:none;stroke-opacity:1;paint-order:stroke markers fill"
           x="177.72972"
           y="91.984909"
           id="text5-5"><tspan
             sodipodi:role="line"
             id="tspan5-4"
             style="font-style:italic;font-variant:normal;font-weight:normal;font-stretch:normal;font-size:4.58611px;font-family:'Times New Roman';-inkscape-font-specification:'Times New Roman,  Italic';fill:#000000;fill-opacity:1;stroke:none;stroke-width:0.1"
             x="177.72972"
             y="91.984909">x</tspan></text>
        <path
           id="path13-1"
           style="fill:none;fill-opacity:1;stroke:#000000;stroke-width:0.5;stroke-linecap:butt;stroke-dasharray:none;stroke-dashoffset:0;stroke-opacity:1;paint-order:markers fill stroke"
           d="m 152.53229,79.955727 7.82175,2e-6 v 14.833204 h -7.82175" />
        <path
           style="opacity:1;fill:#cacaca;fill-opacity:1;stroke:#9f9f9f;stroke-width:0.4;stroke-linecap:butt;stroke-linejoin:miter;stroke-miterlimit:12.9;stroke-dasharray:none;stroke-dashoffset:0;stroke-opacity:1;marker-end:url(#marker17);paint-order:markers fill stroke"
           d="m 161.28008,87.469595 h 17.94205"
           id="path16" />
        <text
           xml:space="preserve"
           style="font-style:normal;font-variant:normal;font-weight:normal;font-stretch:normal;font-size:4.23333px;line-height:95.3%;font-family:'Times New Roman';-inkscape-font-specification:'Times New Roman, ';opacity:1;fill:none;fill-opacity:1;stroke:#000000;stroke-width:0.4;stroke-linecap:butt;stroke-linejoin:miter;stroke-miterlimit:12.9;stroke-dasharray:none;stroke-dashoffset:0;stroke-opacity:1;paint-order:markers fill stroke"
           x="174.34325"
           y="81.38356"
           id="text16"><tspan
             sodipodi:role="line"
             id="tspan16"
             style="font-style:italic;font-variant:normal;font-weight:normal;font-stretch:normal;font-family:'Times New Roman';-inkscape-font-specification:'Times New Roman,  Italic';fill:#000000;fill-opacity:1;stroke:none;stroke-width:0.4;stroke-opacity:1"
             x="174.34325"
             y="81.38356">M</tspan></text>
      </g>
      <g
         id="g32"
         transform="translate(13.086805,0.18514157)">
        <path
           style="fill:#000000;fill-opacity:1;stroke:#ff0000;stroke-width:0.7;stroke-dasharray:none;stroke-opacity:1;marker-end:url(#Triangle-2);paint-order:stroke markers fill"
           d="M 67.654095,78.732748 V 96.264029"
           id="path1-8" />
        <text
           xml:space="preserve"
           style="font-style:normal;font-variant:normal;font-weight:normal;font-stretch:normal;font-size:4.23333px;line-height:95.3%;font-family:'Times New Roman';-inkscape-font-specification:'Times New Roman, ';opacity:1;fill:#000000;fill-opacity:1;stroke:none;stroke-width:0.7;stroke-dasharray:none;stroke-dashoffset:0;stroke-opacity:1;paint-order:markers fill stroke"
           x="70.375267"
           y="88.078369"
           id="text12"><tspan
             sodipodi:role="line"
             id="tspan12"
             style="font-style:italic;font-variant:normal;font-weight:normal;font-stretch:normal;font-size:4.23333px;font-family:'Times New Roman';-inkscape-font-specification:'Times New Roman,  Italic';fill:#000000;fill-opacity:1;stroke:none;stroke-width:0.7"
             x="70.375267"
             y="88.078369">T</tspan></text>
        <path
           id="path13"
           style="fill:none;fill-opacity:1;stroke:#000000;stroke-width:0.4;stroke-linecap:butt;stroke-dasharray:none;stroke-dashoffset:0;stroke-opacity:1;paint-order:markers fill stroke"
           d="m 55.264837,80.019926 7.821746,2e-6 v 14.833204 h -7.821744" />
      </g>
      <g
         id="g30"
         transform="translate(19.194919,-1.6649947)">
        <path
           id="path13-9"
           style="fill:none;fill-opacity:1;stroke:#000000;stroke-width:0.5;stroke-linecap:butt;stroke-dasharray:none;stroke-dashoffset:0;stroke-opacity:1;paint-order:markers fill stroke"
           d="m 47.471907,133.71227 h 15.588766 v 26.41194 H 47.47191" />
        <path
           d="m 69.931648,146.60597 h 0.808975 c 0.06459,0 0.224544,0 0.224544,-0.15687 0,-0.10766 -0.09228,-0.10766 -0.178405,-0.10766 h -1.341114 c -0.113811,0 -0.279912,0 -0.504456,0.23992 -0.126114,0.1415 -0.282988,0.39988 -0.282988,0.43064 0,0.0277 0.02461,0.0369 0.05537,0.0369 0.03384,0 0.03691,-0.0123 0.06152,-0.0431 0.255304,-0.39987 0.507532,-0.39987 0.63057,-0.39987 h 0.406026 l -0.507532,1.67332 c -0.02461,0.0738 -0.02461,0.083 -0.02461,0.0984 0,0.0523 0.03384,0.11996 0.12919,0.11996 0.153798,0 0.178405,-0.12919 0.190709,-0.20301 z m 0,0"
           id="path19"
           style="fill:#000000;fill-opacity:1;stroke:#000000;stroke-width:0.1;stroke-dasharray:none;stroke-opacity:1" />
        <path
           d="m 75.644772,146.87973 c 0.07382,0 0.14457,0 0.14457,-0.083 0,-0.0892 -0.08305,-0.0892 -0.166101,-0.0892 h -2.725293 c -0.08305,0 -0.166102,0 -0.166102,0.0892 0,0.083 0.07382,0.083 0.147646,0.083 z m -0.02153,0.86742 c 0.08305,0 0.166101,0 0.166101,-0.0861 0,-0.0831 -0.07075,-0.0831 -0.14457,-0.0831 h -2.76528 c -0.07382,0 -0.147646,0 -0.147646,0.0831 0,0.0861 0.08305,0.0861 0.166102,0.0861 z m 0,0"
           id="path7"
           style="fill:#000000;fill-opacity:1;stroke:#000000;stroke-width:0.1;stroke-dasharray:none;stroke-opacity:1" />
        <path
           d="m 77.050089,147.34728 c 0,-0.45832 0.233772,-0.86435 0.58443,-1.14118 0.09228,-0.0677 0.264532,-0.20609 0.264532,-0.51369 0,-0.39372 -0.298367,-0.67055 -0.87357,-0.67055 -0.489076,0 -0.781292,0.33527 -0.781292,0.65825 0,0.19071 0.15995,0.19071 0.17533,0.19071 0.05229,0 0.175329,-0.0369 0.175329,-0.17841 0,-0.11996 -0.09228,-0.17533 -0.175329,-0.17533 -0.01846,0 -0.04306,0.006 -0.05844,0.0123 0.101506,-0.3076 0.393721,-0.43063 0.655177,-0.43063 0.565975,0 0.569051,0.39064 0.569051,0.57212 0,0.29529 -0.09228,0.39988 -0.184557,0.49523 -0.322975,0.34758 -0.439861,0.8059 -0.439861,1.16271 v 0.19071 c 0,0.083 0,0.10151 0.04306,0.10151 0.04614,0 0.04614,-0.0185 0.04614,-0.10151 z m 0.153797,0.89817 c 0,-0.10766 -0.08613,-0.19993 -0.199937,-0.19993 -0.107658,0 -0.199936,0.0861 -0.199936,0.19993 0,0.10766 0.0892,0.19994 0.199936,0.19994 0.107659,0 0.199937,-0.0892 0.199937,-0.19994 z m 0,0"
           id="path8"
           style="fill:#000000;fill-opacity:1;stroke:#000000;stroke-width:0.1;stroke-dasharray:none;stroke-opacity:1" />
        <path
           d="m 79.16052,147.34728 c 0,-0.45832 0.233772,-0.86435 0.58443,-1.14118 0.09228,-0.0677 0.264532,-0.20609 0.264532,-0.51369 0,-0.39372 -0.298367,-0.67055 -0.87357,-0.67055 -0.489076,0 -0.781292,0.33527 -0.781292,0.65825 0,0.19071 0.15995,0.19071 0.17533,0.19071 0.05229,0 0.175329,-0.0369 0.175329,-0.17841 0,-0.11996 -0.09228,-0.17533 -0.175329,-0.17533 -0.01846,0 -0.04306,0.006 -0.05844,0.0123 0.101506,-0.3076 0.393721,-0.43063 0.655177,-0.43063 0.565975,0 0.569051,0.39064 0.569051,0.57212 0,0.29529 -0.09228,0.39988 -0.184557,0.49523 -0.322975,0.34758 -0.439861,0.8059 -0.439861,1.16271 v 0.19071 c 0,0.083 0,0.10151 0.04306,0.10151 0.04614,0 0.04614,-0.0185 0.04614,-0.10151 z m 0.153797,0.89817 c 0,-0.10766 -0.08613,-0.19993 -0.199937,-0.19993 -0.107658,0 -0.199936,0.0861 -0.199936,0.19993 0,0.10766 0.0892,0.19994 0.199936,0.19994 0.107659,0 0.199937,-0.0892 0.199937,-0.19994 z m 0,0"
           id="path20"
           style="fill:#000000;fill-opacity:1;stroke:#000000;stroke-width:0.1;stroke-dasharray:none;stroke-opacity:1" />
        <path
           style="opacity:1;fill:#000000;fill-opacity:1;stroke:#ff0000;stroke-width:0.4;stroke-linecap:butt;stroke-linejoin:miter;stroke-miterlimit:12.9;stroke-dasharray:none;stroke-dashoffset:0;stroke-opacity:1;marker-end:url(#Triangle);paint-order:markers fill stroke"
           d="m 63.063914,133.56962 v 6.73519"
           id="path18" />
        <path
           style="fill:#000000;fill-opacity:1;stroke:#ff0000;stroke-width:0.4;stroke-linecap:butt;stroke-linejoin:miter;stroke-miterlimit:12.9;stroke-dasharray:none;stroke-dashoffset:0;stroke-opacity:1;marker-end:url(#Triangle-7);paint-order:markers fill stroke"
           d="m 63.075462,142.9004 v 6.73519"
           id="path18-3" />
        <path
           style="fill:#000000;fill-opacity:1;stroke:#ff0000;stroke-width:0.4;stroke-linecap:butt;stroke-linejoin:miter;stroke-miterlimit:12.9;stroke-dasharray:none;stroke-dashoffset:0;stroke-opacity:1;marker-end:url(#Triangle-8);paint-order:markers fill stroke"
           d="m 63.059536,152.20009 v 6.73519"
           id="path18-5" />
      </g>
      <g
         id="g29"
         transform="translate(-15.600346,-1.1812229)">
        <text
           xml:space="preserve"
           style="font-size:4.58611px;line-height:95.3%;font-family:Verdana;-inkscape-font-specification:Verdana;fill:none;stroke:#ff0000;stroke-width:0.1;stroke-dasharray:none;stroke-opacity:1;paint-order:stroke markers fill"
           x="167.80891"
           y="150.16145"
           id="text5-5-9"><tspan
             sodipodi:role="line"
             id="tspan5-4-6"
             style="font-style:italic;font-variant:normal;font-weight:normal;font-stretch:normal;font-size:4.58611px;font-family:'Times New Roman';-inkscape-font-specification:'Times New Roman,  Italic';fill:#000000;fill-opacity:1;stroke:none;stroke-width:0.1"
             x="167.80891"
             y="150.16145">x</tspan></text>
        <path
           style="opacity:1;fill:none;fill-opacity:1;stroke:#9f9f9f;stroke-width:0.4;stroke-linecap:butt;stroke-linejoin:miter;stroke-miterlimit:12.9;stroke-dasharray:0.8, 0.8;stroke-dashoffset:0;stroke-opacity:1;paint-order:markers fill stroke"
           d="M 154.10739,146.16989 H 137.53754"
           id="path26" />
        <path
           style="opacity:1;fill:none;fill-opacity:1;stroke:#ff0000;stroke-width:0.4;stroke-linecap:butt;stroke-linejoin:miter;stroke-miterlimit:12.9;stroke-dasharray:none;stroke-dashoffset:0;stroke-opacity:1;marker-end:url(#Triangle);paint-order:markers fill stroke"
           d="m 154.26448,133.25491 h 13.81465"
           id="path28" />
        <path
           style="opacity:1;fill:none;fill-opacity:1;stroke:#9f9f9f;stroke-width:0.4;stroke-linecap:butt;stroke-linejoin:miter;stroke-miterlimit:12.9;stroke-dasharray:none;stroke-dashoffset:0;stroke-opacity:1;marker-end:url(#marker17);paint-order:markers fill stroke"
           d="m 154.09085,146.16989 h 13.9361"
           id="path25" />
        <path
           style="fill:none;fill-opacity:1;stroke:#ff0000;stroke-width:0.4;stroke-linecap:butt;stroke-linejoin:miter;stroke-miterlimit:12.9;stroke-dasharray:none;stroke-dashoffset:0;stroke-opacity:1;marker-end:url(#Triangle-5);paint-order:markers fill stroke"
           d="m 154.32993,137.89826 h 8.1244"
           id="path28-1" />
        <path
           style="fill:none;fill-opacity:1;stroke:#ff0000;stroke-width:0.4;stroke-linecap:butt;stroke-linejoin:miter;stroke-miterlimit:12.9;stroke-dasharray:none;stroke-dashoffset:0;stroke-opacity:1;marker-end:url(#Triangle-75);paint-order:markers fill stroke"
           d="m 154.28515,142.3887 h 2.73796"
           id="path28-4" />
        <path
           style="fill:none;fill-opacity:1;stroke:#ff0000;stroke-width:0.4;stroke-linecap:butt;stroke-linejoin:miter;stroke-miterlimit:12.9;stroke-dasharray:none;stroke-dashoffset:0;stroke-opacity:1;marker-end:url(#Triangle-6);paint-order:markers fill stroke"
           d="M 169.59041,159.10182 H 155.76519"
           id="path28-2" />
        <path
           style="fill:none;fill-opacity:1;stroke:#ff0000;stroke-width:0.4;stroke-linecap:butt;stroke-linejoin:miter;stroke-miterlimit:12.9;stroke-dasharray:none;stroke-dashoffset:0;stroke-opacity:1;marker-end:url(#Triangle-1-2);paint-order:markers fill stroke"
           d="m 158.68338,150.0365 h -3.00767"
           id="path28-7-8" />
        <path
           style="fill:none;fill-opacity:1;stroke:#ff0000;stroke-width:0.4;stroke-linecap:butt;stroke-linejoin:miter;stroke-miterlimit:12.9;stroke-dasharray:none;stroke-dashoffset:0;stroke-opacity:1;marker-end:url(#Triangle-1);paint-order:markers fill stroke"
           d="m 164.17049,154.4833 h -8.47587"
           id="path28-7" />
        <path
           style="fill:none;fill-opacity:1;stroke:#9f9f9f;stroke-width:0.4;stroke-linecap:butt;stroke-linejoin:miter;stroke-miterlimit:12.9;stroke-dasharray:none;stroke-dashoffset:0;stroke-opacity:1;paint-order:markers fill stroke"
           d="m 154.0976,146.16802 15.65345,-12.90989"
           id="path23" />
        <path
           style="fill:none;fill-opacity:1;stroke:#9f9f9f;stroke-width:0.4;stroke-linecap:butt;stroke-linejoin:miter;stroke-miterlimit:12.9;stroke-dasharray:none;stroke-dashoffset:0;stroke-opacity:1;paint-order:markers fill stroke"
           d="m 154.09292,146.16886 15.65176,12.94288"
           id="path24" />
        <path
           id="path13-9-5"
           style="fill:none;fill-opacity:1;stroke:#000000;stroke-width:0.5;stroke-linecap:butt;stroke-dasharray:none;stroke-dashoffset:0;stroke-opacity:1;paint-order:markers fill stroke"
           d="m 138.50953,133.26145 h 15.58876 v 25.87629 h -15.58876" />
        <g
           inkscape:label=""
           transform="matrix(0.67005616,0,0,0.67005616,165.12912,138.11182)"
           id="g28"
           style="stroke-width:1.49241">
          <g
             fill="#000000"
             fill-opacity="1"
             id="g3"
             transform="matrix(0.352778,0,0,0.352778,-1.03382,-0.697265)"
             style="stroke-width:1.49241">
            <g
               id="use2"
               transform="translate(1.993,12.664)"
               style="stroke-width:1.49241">
              <path
                 d="m 12.59375,-9.34375 c 0.3125,0 1.140625,0 1.140625,-0.796875 0,-0.546875 -0.46875,-0.546875 -0.921875,-0.546875 H 7.328125 c -3.703125,0 -6.390625,4.140625 -6.390625,7.0625 0,2.109375 1.359375,3.875 3.59375,3.875 2.921875,0 6.125,-3.15625 6.125,-6.859375 0,-0.96875 -0.21875,-1.921875 -0.8125,-2.734375 z M 4.5625,-0.25 c -1.265625,0 -2.1875,-0.96875 -2.1875,-2.671875 0,-1.484375 0.890625,-6.421875 4.53125,-6.421875 1.078125,0 2.265625,0.515625 2.265625,2.4375 0,0.859375 -0.40625,2.9375 -1.265625,4.375 C 7.015625,-1.0625 5.671875,-0.25 4.5625,-0.25 Z m 0,0"
                 id="path4"
                 style="stroke-width:1.49241" />
            </g>
          </g>
          <g
             fill="#000000"
             fill-opacity="1"
             id="g27"
             transform="matrix(0.352778,0,0,0.352778,-1.03382,-0.697265)"
             style="stroke-width:1.49241">
            <g
               id="g26"
               transform="translate(15.787,16.382)"
               style="stroke-width:1.49241">
              <path
                 d="m 9.796875,-8.421875 c -0.671875,0.125 -0.921875,0.609375 -0.921875,1 0,0.5 0.40625,0.671875 0.6875,0.671875 0.625,0 1.0625,-0.546875 1.0625,-1.09375 0,-0.875 -1,-1.265625 -1.859375,-1.265625 -1.265625,0 -1.96875,1.234375 -2.15625,1.625 -0.46875,-1.546875 -1.75,-1.625 -2.125,-1.625 -2.109375,0 -3.21875,2.703125 -3.21875,3.15625 0,0.09375 0.078125,0.1875 0.21875,0.1875 0.171875,0 0.203125,-0.125 0.25,-0.203125 0.703125,-2.296875 2.09375,-2.734375 2.6875,-2.734375 0.921875,0 1.109375,0.875 1.109375,1.375 0,0.453125 -0.125,0.921875 -0.359375,1.921875 L 4.46875,-2.578125 c -0.3125,1.234375 -0.921875,2.375 -2.015625,2.375 -0.09375,0 -0.609375,0 -1.046875,-0.265625 C 2.140625,-0.625 2.3125,-1.234375 2.3125,-1.484375 2.3125,-1.90625 2,-2.140625 1.609375,-2.140625 c -0.5,0 -1.03125,0.421875 -1.03125,1.09375 0,0.859375 0.96875,1.25 1.859375,1.25 0.984375,0 1.6875,-0.78125 2.125,-1.625 0.328125,1.21875 1.359375,1.625 2.125,1.625 2.109375,0 3.234375,-2.703125 3.234375,-3.15625 0,-0.109375 -0.09375,-0.1875 -0.21875,-0.1875 -0.1875,0 -0.203125,0.109375 -0.265625,0.265625 -0.5625,1.828125 -1.75,2.671875 -2.6875,2.671875 -0.71875,0 -1.109375,-0.546875 -1.109375,-1.390625 0,-0.453125 0.078125,-0.78125 0.40625,-2.140625 l 0.734375,-2.8125 c 0.296875,-1.234375 1,-2.15625 1.953125,-2.15625 0.046875,0 0.625,0 1.0625,0.28125 z m 0,0"
                 id="path5"
                 style="stroke-width:1.49241" />
            </g>
          </g>
        </g>
      </g>
      <path
         style="opacity:1;fill:#000000;fill-opacity:1;stroke:#000000;stroke-width:0.4;stroke-linecap:butt;stroke-linejoin:miter;stroke-miterlimit:12.9;stroke-dasharray:none;stroke-dashoffset:0;stroke-opacity:1;marker-end:url(#Triangle);paint-order:markers fill stroke"
         d="m 115.05953,61.458625 7.76418,7.857726"
         id="path33" />
      <g
         id="g34">
        <path
           style="fill:#909090;fill-opacity:1;stroke:#878787;stroke-width:0.3;stroke-linejoin:miter;stroke-dasharray:none;stroke-dashoffset:0;stroke-opacity:1;marker-end:url(#DartArrow);paint-order:stroke markers fill"
           d="M 70.277713,46.309758 H 148.73549"
           id="path11" />
        <rect
           style="fill:none;stroke:#000000;stroke-width:0.5;stroke-linejoin:miter;stroke-dasharray:2.00001, 1;stroke-dashoffset:0;stroke-opacity:1;paint-order:stroke markers fill"
           id="rect9-5"
           width="65.122444"
           height="8.6037416"
           x="70.283424"
           y="42.21595" />
        <rect
           style="fill:#909090;fill-opacity:1;stroke:none;stroke-width:0.3;stroke-linejoin:miter;stroke-dasharray:none;stroke-dashoffset:0;stroke-opacity:1;paint-order:stroke markers fill"
           id="rect10"
           width="2.1911807"
           height="23.100222"
           x="67.941757"
           y="34.971996" />
        <path
           style="display:inline;fill:#909090;fill-opacity:1;stroke:#878787;stroke-width:0.3;stroke-linejoin:miter;stroke-dasharray:none;stroke-dashoffset:0;stroke-opacity:1;marker-end:url(#marker12);paint-order:stroke markers fill"
           d="M 70.277713,35.110441 V 25.976092"
           id="path10" />
        <path
           style="fill:#909090;stroke:#ff0000;stroke-width:0.6;stroke-dasharray:none;stroke-opacity:1;marker-end:url(#Triangle);paint-order:stroke markers fill"
           d="M 101.00142,40.30599 V 54.805286"
           id="path1" />
        <path
           id="path3"
           style="fill:none;stroke:#ff0000;stroke-width:0.600001;stroke-dasharray:none;stroke-opacity:1;marker-end:url(#Triangle);paint-order:stroke markers fill"
           d="m 105.58854,36.440286 a 10.331797,12.06561 0 0 1 4.82274,10.087911 10.331797,12.06561 0 0 1 -4.02385,9.676002" />
        <text
           xml:space="preserve"
           style="font-size:4.58611px;line-height:95.3%;font-family:Verdana;-inkscape-font-specification:Verdana;fill:none;stroke:#ff0000;stroke-width:0.1;stroke-dasharray:none;stroke-opacity:1;paint-order:stroke markers fill"
           x="149.25156"
           y="50.056015"
           id="text5"><tspan
             sodipodi:role="line"
             id="tspan5"
             style="font-style:italic;font-variant:normal;font-weight:normal;font-stretch:normal;font-size:4.58611px;font-family:'Times New Roman';-inkscape-font-specification:'Times New Roman,  Italic';fill:#000000;fill-opacity:1;stroke:none;stroke-width:0.1"
             x="149.25156"
             y="50.056015">x</tspan></text>
        <text
           xml:space="preserve"
           style="font-style:italic;font-variant:normal;font-weight:normal;font-stretch:normal;font-size:4.5861px;line-height:95.3%;font-family:'Times New Roman';-inkscape-font-specification:'Times New Roman,  Italic';fill:#000000;fill-opacity:1;stroke:none;stroke-width:0.1;stroke-dasharray:none;stroke-opacity:1;paint-order:stroke markers fill"
           x="72.200096"
           y="25.587896"
           id="text6"><tspan
             sodipodi:role="line"
             id="tspan6"
             style="stroke-width:0.1"
             x="72.200096"
             y="25.587896">y</tspan></text>
        <text
           xml:space="preserve"
           style="font-style:italic;font-variant:normal;font-weight:normal;font-stretch:normal;font-size:3.88056px;line-height:95.3%;font-family:'Times New Roman';-inkscape-font-specification:'Times New Roman,  Italic';fill:#000000;fill-opacity:1;stroke:none;stroke-width:0.1;stroke-dasharray:none;stroke-opacity:1;paint-order:stroke markers fill"
           x="99.898178"
           y="38.984207"
           id="text7"><tspan
             sodipodi:role="line"
             id="tspan7"
             style="font-style:italic;font-variant:normal;font-weight:normal;font-stretch:normal;font-size:3.88056px;font-family:'Times New Roman';-inkscape-font-specification:'Times New Roman,  Italic';stroke-width:0.1"
             x="99.898178"
             y="38.984207">T</tspan></text>
        <path
           style="fill:none;fill-opacity:1;stroke:#000003;stroke-width:0.5;stroke-linejoin:miter;stroke-dasharray:none;stroke-dashoffset:0;stroke-opacity:1;paint-order:stroke markers fill"
           d="M 70.283424,34.972525 V 58.071631"
           id="path9" />
        <text
           xml:space="preserve"
           style="font-style:italic;font-variant:normal;font-weight:normal;font-stretch:normal;font-size:3.88056px;line-height:95.3%;font-family:'Times New Roman';-inkscape-font-specification:'Times New Roman,  Italic';fill:#000000;fill-opacity:1;stroke:none;stroke-width:0.1;stroke-dasharray:none;stroke-opacity:1;paint-order:stroke markers fill"
           x="109.86171"
           y="38.409645"
           id="text8"><tspan
             sodipodi:role="line"
             id="tspan8"
             style="font-style:italic;font-variant:normal;font-weight:normal;font-stretch:normal;font-size:3.88056px;font-family:'Times New Roman';-inkscape-font-specification:'Times New Roman,  Italic';stroke-width:0.1"
             x="109.86171"
             y="38.409645">M</tspan></text>
        <rect
           style="fill:#cacaca;fill-opacity:1;stroke:#000000;stroke-width:0.5;stroke-linejoin:miter;stroke-dasharray:none;stroke-opacity:1;paint-order:markers fill stroke"
           id="rect9"
           width="26.887074"
           height="8.6037416"
           x="70.283699"
           y="42.218559" />
      </g>
      <path
         style="fill:#000000;fill-opacity:1;stroke:#000000;stroke-width:0.4;stroke-linecap:butt;stroke-linejoin:miter;stroke-miterlimit:12.9;stroke-dasharray:none;stroke-dashoffset:0;stroke-opacity:1;marker-end:url(#Triangle-0);paint-order:markers fill stroke"
         d="m 99.787473,61.433588 -7.764177,7.857726"
         id="path33-8" />
    </g>
  </g>
</svg>
